<?xml version="1.0" encoding="utf-8"?>
<!DOCTYPE svg PUBLIC "-//W3C//DTD SVG 1.1//EN" "http://www.w3.org/Graphics/SVG/1.1/DTD/svg11.dtd">
<svg version="1.1" id="Layer_1" xmlns="http://www.w3.org/2000/svg" xmlns:xlink="http://www.w3.org/1999/xlink" x="0px" y="0px"
	 viewBox="0 0 3467.4858 3198.188" enable-background="new 0 0 3467.4858 3198.188" xml:space="preserve">
<g>
	<path d="M2406.9807,488.3927c-6.2153-4.7377-10.7849-11.5715-18.0442-15.0194c-1.8408,2.3922-1.0039,4.3118-0.5029,6.1788
		c7.2859,27.1574,19.2241,52.1951,34.6389,75.6238c1.2488,1.8982,3.0962,3.4028,4.6653,5.0902l-0.1135-0.126
		c0.5269,2.6916,1.9688,4.9193,3.5625,7.0769c37.5256,50.8086,86.9026,80.549,150.6204,85.046
		c47.6582,3.3636,93.2075-3.9525,135.0115-27.922c48.8289-27.9977,80.4038-69.2656,91.4709-124.9547
		c12.9512-65.1708-18.4856-135.5349-74.1558-167.4339c-45.5056-26.0747-105.9087-22.2584-147.0732,9.6019
		c-25.9578,20.0907-40.2942,46.5288-41.9001,79.5414c-0.781,16.0513-0.095,31.9617,4.373,47.5582
		c18.999,66.3181,93.8105,65.6455,125.4373,35.4443c9.2603-8.8428,17.429-18.3534,22.575-30.197
		c9.521-21.9127,5.3711-44.7847-11.4148-61.78c-3.26-3.3004-7.0476-6.0903-10.6672-9.0228
		c-9.407-7.6212-19.5859-9.2623-30.7947-4.1549c-11.4675,5.2253-21.8853,3.9974-31.2625-5.0569
		c-3.5339-3.4124-7.9624-5.8981-12.7085-9.3307c8.0073-4.4954,15.3411-8.9785,22.999-12.8148
		c8.6262-4.3215,16.823-2.8974,24.1494,3.3558c1.7722,1.5128,3.5505,3.0421,5.1497,4.7305
		c7.813,8.2474,16.5085,15.1319,26.304,21.1478c29.179,17.9205,38.4102,50.9171,23.8533,81.8801
		c-18.9053,40.2129-63.2739,61.7077-106.5166,51.4037c-25.9104-6.174-45.2864-21.3328-56.6011-45.2512
		c-27.7703-58.7039-20.1833-150.4813,74.7813-187.1686c69.3367-26.7866,146.6084-0.9455,188.9902,62.0748
		c50.4419,75.0053,42.6628,173.1227-19.082,239.9274c-41.1514,44.5238-92.7949,67.0632-152.5471,72.3412
		c-30.7737,2.7181-61.1775,0.3088-93.0486-8.3353c3.9705,4.7416,7.8469,6.2915,11.3499,8.0782
		c27.0115,13.777,54.0981,27.4061,81.1582,41.0875c48.7903,24.6677,97.312,49.8174,142.7749,80.3887
		c36.3975,24.4752,70.3687,51.7721,97.7085,86.4307c36.9102,46.7911,58.5371,99.7167,62.248,159.4661
		c1.6079,25.8887-2.9077,51.1339-9.7336,76.0123c-5.7356,20.9048-13.2991,41.2166-20.0916,61.7784
		c-5.865,17.7544-10.9404,35.7026-12.623,54.4102c-3.1824,35.3854,9.5903,65.27,31.8721,91.8619
		c25.9492,30.9688,56.363,56.6222,91.3328,76.8508c12.4036,7.1749,24.9702,14.0701,37.3315,21.3159
		c5.7393,3.364,11.3264,7.0411,16.7046,10.9576c16.9714,12.3578,27.2192,29.0065,30.748,49.6901
		c3.3489,19.6267,3.364,39.1594-2.7568,58.3303c-1.2803,4.0105-1.9385,8.5042-5.7969,11.256l0.1545,0.1292
		c1.5039-5.4359,3.0706-10.8553,4.5007-16.3107c5.4731-20.8735,4.3057-41.6162-1.6572-62.1573
		c-4.0225-13.8572-12.0129-25.1276-23.2546-34.1733c-9.6711-7.7821-20.4504-13.7571-31.3528-19.5281
		c-25.9482-13.7355-51.5525-27.999-74.5518-46.4731c-17.9871-14.448-34.4646-30.4298-49.4517-47.9651
		c-30.5759-35.7738-40.1772-76.5304-29.3667-122.2786c4.3743-18.5105,10.1831-36.5801,15.9424-54.6765
		c7.4822-23.5107,14.1975-47.1677,17.3682-71.7715c3.9597-30.725-0.0432-60.4194-9.4502-89.6888
		c-15.2915-47.5797-42.6013-87.0812-79.814-120.0781c-31.3367-27.7866-66.3616-50.2786-102.2253-71.5771
		c-55.6213-33.0321-113.0928-62.6815-170.2039-92.989c-44.6418-23.6902-84.199-53.7555-116.3645-93.0436
		c-32.9595-40.2586-54.8074-85.8557-63.717-137.1292c-1.8723-10.7763-7.0518-15.6758-16.2-18.6223
		c-4.4036-1.4183-5.7617-0.6311-5.0913,3.7944c1.6965,11.1959,3.2625,22.4489,5.7598,33.48
		c16.4958,72.8626,52.8704,133.9673,109.1335,183.1631c8.5488,7.475,16.803,15.2128,23.8103,24.1866
		c3.7056,4.7455,7.0413,9.7362,9.1274,15.4301c4.6326,12.6437-0.678,21.1166-14.1428,22.2146
		c-3.6025,0.2939-7.3335-0.1057-10.9233-0.6907c-15.4592-2.5198-29.1057-9.4478-41.8762-18.1255
		c-34.1692-23.2183-57.3494-55.2692-73.4551-92.7726c-14.3787-33.4819-20.9683-68.741-22.584-104.9792
		c-0.9065-20.3304-0.1489-40.6387,1.8474-60.9146c1.0061-10.217-0.3179-11.5657-10.7351-11.4804
		c-12.522,0.1027-24.3062,3.6032-35.6384,8.81c-13.9504,6.4098-27.1665,14.1999-40.6411,21.5005
		c-27.6765,14.995-56.5786,26.8135-87.2488,34.1349c-17.1997,4.1059-34.5442,7.5188-52.2148,8.5432
		c-37.9631,2.2004-70.7186-10.0806-98.4515-36.0696c-13.667-12.8076-25.5967-27.1454-37.4255-41.5903
		c-12.8811-15.7302-25.8484-31.3587-39.9509-46.0593c-35.1587-36.6503-78.6182-56.3227-128.217-63.819
		c-47.5853-7.192-93.598-0.2806-138.7015,15.2384c-44.9008,15.4492-87.2009,36.6156-129.2219,58.419
		c-44.0845,22.874-87.2816,47.3688-130.6869,71.4838c-40.2311,22.3514-82.5674,38.9967-128.2938,45.755
		c-77.9905,11.5267-150.5414-2.7134-216.4158-47.0906c-5.3135-3.5795-11.0327-6.932-15.495-13.3652
		c4.5011-0.1912,6.5966,2.1366,8.9751,3.6046c46.8396,28.9079,97.6775,43.8599,152.8074,42.9677
		c51.3287-0.8307,98.4181-14.8399,136.6002-50.4164c47.8293-44.5652,76.5736-99.6484,77.9282-165.5524
		c1.4069-68.444-25.519-124.6023-85.8856-160.0625c-47.7782-28.0656-99.0513-31.973-149.2266-6.4758
		c-47.3447,24.0588-71.4779,65.0845-73.0392,117.9236c-1.1173,37.8094,14.77,68.4783,45.9938,90.5545
		c15.3601,10.86,31.7153,19.6373,50.5145,23.0612c27.2892,4.9703,50.1316-3.1036,68.2537-23.8571
		c23.7355-27.1818,26.9911-64.4187,8.8817-95.9313c-20.2448-35.2283-57.6296-34.2142-83.2372-19.0969
		c-4.1881,2.4725-6.8571,6.3132-8.4414,10.8271c-0.9896,2.8195-1.7822,5.7427-2.3126,8.6827
		c-2.173,12.0436-8.7729,19.748-20.9377,22.692c-4.7841,1.1578-9.3221,3.332-15.6035,5.6437
		c2.2166-9.7003,0.9208-18.5802,2.3848-27.3417c1.4534-8.6986,6.4233-15.1285,14.9688-16.9466
		c17.0173-3.6205,32.8165-10.4805,49.0988-16.1917c25.0698-8.7936,51.1133-0.4499,67.045,20.7172
		c43.3928,57.6514,9.126,131.9994-47.5062,145.7248c-12.1479,2.9442-24.3062,3.0596-36.697,1.2235
		c-52.1775-7.7311-98.7725-49.5343-110.3247-100.5188c-8.1967-36.1755-3.1877-71.1235,14.6503-103.6192
		c29.1877-53.1715,75.0297-81.1104,135.1367-84.3568c101.1797-5.4649,182.516,67.2119,199.616,162.8287
		c9.2075,51.4848-0.1825,100.0942-23.626,146.3321c-15.2369,30.0522-35.6448,56.1898-60.5688,78.8256
		c0.0031,0.0002-0.2723,0.259-0.2723,0.259l0.3267-0.2971c12.1639-3.9354,22.7231-11.0139,33.6576-17.3217
		c33.4832-19.3153,66.7488-39.012,100.3712-58.0802c41.4822-23.5256,83.868-45.2778,128.6216-62.0416
		c36.6877-13.7426,74.2655-24.2321,113.6354-25.431c83.7178-2.5494,157.3174,20.8059,213.5139,86.4487
		c11.9143,13.9171,23.116,28.4464,34.5745,42.751c10.2134,12.75,20.5146,25.3989,32.2878,36.7945
		c29.3634,28.4216,64.4623,38.4339,104.6024,33.7026c44.5984-5.2567,86.4114-18.9142,125.9417-39.9966
		c11.1704-5.9575,22.4407-11.739,33.8008-17.326c14.8857-7.3211,30.4863-11.8226,47.2869-9.9008
		c5.6252,0.6434,7.4814-1.6336,8.334-6.8743c1.6897-10.3885,2.6428-20.9715,6.2607-31.4933
		c2.2859,2.7457,1.4507,5.4358,1.5388,7.9028c0.2261,6.3264,0.0327,12.674,0.4272,18.9868
		c1.0244,16.3929,2.1375,17.5311,20.0715,21.9402c-1.1777-18.6894-2.5171-37.2295-0.1384-55.7321
		c0.1216-0.946,0.605-1.8853,2.5352-2.2875c1.3975,2.4507,0.8479,5.3608,0.876,8.076c0.1772,17.0611,2.5691,33.8503,5.7046,50.586
		c0.9226,4.9251,3.0115,8.4603,7.0374,11.4665c6.6467,4.9631,13.3127,10.0433,17.5547,17.4803
		C2407.645,487.7853,2407.3132,488.0894,2406.9807,488.3927z"/>
	<path d="M1071.4935,2719.9265c5.1617,0.6482,7.2047,6.9851,12.7429,7.0894c1.9659-3.5139-0.2139-6.5574-1.045-9.5959
		c-6.025-22.0264-16.1042-42.2651-27.3794-62.0044c-4.6373-8.1184-11.2498-14.7466-15.8434-22.979
		c-4.5101-8.0823-11.3297-14.7688-17.7836-21.5276c-6.6831-6.9985-13.6702-13.6631-21.2416-19.6985
		c-33.4412-26.6575-71.8137-40.251-114.2635-42.533c-46.2255-2.4849-90.5663,5.0833-130.9674,28.5688
		c-53.0407,30.8333-85.4066,76.2429-93.3509,137.8511c-7.7632,60.2041,24.5731,125.4983,76.7222,155.2029
		c46.7621,26.636,108.6616,21.5874,150.1786-12.7019c23.8116-19.6663,36.9359-45.0903,38.4963-76.1455
		c0.8229-16.3733,0.2329-32.6206-4.3835-48.5444c-19.0493-65.709-91.838-65.5134-123.9828-37.0254
		c-11.1561,9.8867-20.4407,21.0615-25.6169,35.1726c-7.5572,20.6013-3.8839,39.312,10.201,56.0212
		c3.6675,4.3506,8.1659,7.7983,12.62,11.324c9.7488,7.7175,20.0469,9.8906,31.681,4.5264
		c11.4443-5.2769,21.9056-3.9944,31.2928,4.999c3.3197,3.1804,7.4469,5.5183,12.015,8.8274
		c-8.4349,5.0344-15.9884,10.6843-24.8707,14.05c-6.6912,2.5354-13.1514,1.7251-18.9603-2.5557
		c-2.6718-1.969-5.2809-4.094-7.5966-6.4631c-7.931-8.1138-16.488-15.1367-26.3479-21.0957
		c-28.7686-17.3875-38.2075-49.0413-24.8741-79.8752c18.5153-42.8169,67.4194-65.5728,112.0426-52.052
		c22.1245,6.7034,38.6974,20.4124,49.9454,40.5095c32.6969,58.4211,14.5514,135.8909-40.5809,173.5745
		c-51.8972,35.4727-120.8715,36.731-173.4599,1.8835c-46.6929-30.9407-72.0931-75.7036-79.5213-130.6829
		c-10.9812-81.2769,34.6478-168.4653,121.9115-207.6394c52.5542-23.5923,107.2268-27.6802,163.2947-15.2656
		c3.1881,0.7061,6.3685,1.446,10.2294,0.7422c-5.3333-3.0669-10.5343-6.3965-16.0216-9.1572
		c-31.5509-15.874-63.214-31.5247-94.7545-47.4189c-46.4496-23.407-92.2736-47.9302-135.0873-77.6575
		c-32.4387-22.5237-62.4402-47.7891-87.3622-78.6736c-33.443-41.4443-53.7097-88.7527-61.566-141.2366
		c-4.8111-32.1404-0.4712-63.7954,8.1221-94.9404c5.3211-19.2854,12.1223-38.0941,18.3694-57.0822
		c5.8342-17.7329,11.0013-35.6008,13.3142-54.2534c3.9451-31.8167-4.55-60.2183-23.4382-85.4956
		c-26.8978-35.9963-60.5746-64.48-99.3947-86.9458c-11.2466-6.5085-22.6769-12.699-33.9567-19.1511
		c-5.203-2.9763-10.3239-6.1128-15.3485-9.3818c-21.0261-13.6797-33.6392-32.7292-36.9957-57.7971
		c-2.0056-14.979-2.2905-29.8821,0.8848-44.7163c0.7476-3.4929,1.0007-7.301,4.0417-9.9077
		c-0.0007-0.0012-0.175-0.1372-0.175-0.1372c0.4194,3.0479-0.376,5.9429-1.0261,8.877c-4.0464,18.2673-3.025,36.4246,1.3317,54.4878
		c4.3478,18.0266,14.7097,31.8472,29.722,42.4167c9.0198,6.3503,18.6748,11.6118,28.4485,16.6655
		c31.7705,16.4272,62.3569,34.6223,88.9385,58.897c11.582,10.5767,22.6003,21.6802,32.8712,33.5422
		c29.9807,34.6255,40.4026,74.228,30.8774,119.1318c-4.5764,21.574-11.5803,42.4231-18.1206,63.4169
		c-6.2516,20.0671-11.7617,40.2993-14.8405,61.1389c-4.7701,32.2881-1.2462,63.7158,8.8344,94.6726
		c15.5831,47.854,43.0766,87.5969,80.6918,120.6704c31.1951,27.4282,65.9521,49.7192,101.6065,70.7217
		c55.7394,32.834,113.2949,62.322,170.5104,92.4358c47.7708,25.1426,89.7299,57.4116,123.0383,100.3135
		c30.4115,39.1707,50.0668,83.1355,59.038,131.8894c1.696,9.2161,8.6882,15.9873,17.7931,17.0505
		c3.7527,0.4385,3.5612-2.1218,3.1538-4.5203c-1.8962-11.1646-3.3925-22.425-5.9037-33.4526
		c-16.7582-73.5967-53.9269-134.9546-111.1083-184.2087c-8.6027-7.4097-16.7501-15.2708-23.6405-24.3447
		c-3.645-4.7998-6.8459-9.853-8.6764-15.6621c-3.4491-10.9458,1.1787-18.5632,12.501-20.0906
		c9.493-1.2798,18.5945,0.8718,27.4189,4.1509c19.0485,7.0786,35.4529,18.3657,50.0981,32.2646
		c31.3245,29.7283,51.0737,66.2729,62.6309,107.511c12.0363,42.9465,13.9015,86.6794,9.7549,130.8604
		c-1.2264,13.0662-0.8019,13.3496,12.4116,13.2021c12.2789-0.137,23.6981-3.7839,34.5225-9.1177
		c11.651-5.7412,23.0748-11.9648,34.4357-18.2698c29.5742-16.4126,60.3578-29.7612,93.3718-37.6123
		c17.2068-4.092,34.5389-7.582,52.2205-8.5859c38.3879-2.1794,71.2823,10.5796,99.1163,36.9707
		c17.2389,16.3457,31.7578,35.0542,46.9166,53.2139c8.5452,10.2363,17.327,20.2502,26.4589,29.9792
		c34.1674,36.4016,76.3827,57.0286,125.2512,65.5054c48.6077,8.4319,95.5624,1.8794,141.7482-13.6956
		c47.2471-15.9331,91.4524-38.5566,135.4592-61.6091c42.8167-22.4292,84.7583-46.4465,126.9271-70.051
		c38.9744-21.8159,79.9629-38.1907,124.1931-45.6531c76.4004-12.8901,147.8843,0.0618,213.9177,41.1321
		c7.575,4.7117,14.8442,9.8848,21.7341,16.2185c-3.5027,2.2097-5.0596-0.2671-6.8025-1.3469
		c-51.4167-31.8423-107.2134-46.7651-167.6804-42.7488c-69.2615,4.6011-122.9224,36.2295-160.9163,94.3477
		c-23.8203,36.4373-38.6354,75.9368-40.0702,119.8289c-2.5969,79.4424,43.5111,152.6802,118.2328,176.2939
		c31.969,10.103,64.3069,10.8811,96.4824,0.9175c59.7217-18.4941,99.6089-77.8574,93.7727-139.9646
		c-2.812-29.9219-16.0015-54.7505-39.7727-73.5244c-12.0945-9.5518-25.2095-17.5237-39.7375-22.8052
		c-27.1572-9.8728-53.4688-9.3372-76.1943,10.3833c-23.2283,20.1572-33.6853,45.8093-28.0771,76.9121
		c2.2183,12.3022,6.3848,23.8589,13.853,33.959c14.3196,19.3665,33.5232,26.4683,57.0874,22.0571
		c5.5962-1.0474,10.8486-3.1633,16.1445-5.208c9.5901-3.7021,14.9978-10.5869,16.9565-20.5706
		c0.7654-3.9011,1.9456-7.7593,3.3308-11.491c1.8113-4.8787,5.2097-8.6914,9.9966-10.6748
		c6.9971-2.8987,14.207-5.2839,22.0637-8.158c0.2073,10.1145,0.2893,19.3347-1.6384,28.4287
		c-1.5925,7.511-6.3613,12.9849-13.6353,14.5574c-17.6519,3.8162-33.9763,11.3513-50.9907,16.8445
		c-24.0183,7.7537-46.1387,1.7896-62.6292-17.3965c-22.2556-25.8938-28.709-56.2776-17.9004-88.8438
		c10.7224-32.3057,32.5005-53.8408,66.7078-60.9924c11.8867-2.4856,23.9651-2.386,35.7385,0.481
		c40.21,9.791,73.3467,30.0864,94.051,66.9731c18.6013,33.1401,20.4307,68.5825,10.6072,104.6978
		c-17.0278,62.5994-72.4136,108.1868-136.8884,115.0757c-97.6953,10.4385-186.6122-54.27-208.5231-153.575
		c-12.9626-58.75-1.5825-113.8372,27.7194-165.6602c13.3713-23.6484,29.7722-45.0027,49.9387-63.3418
		c1.2021-1.0935,2.364-2.2312,2.8596-4.5767c-3.7295,1.8218-7.5889,3.4204-11.1685,5.5005
		c-29.3909,17.0779-58.7233,34.2568-88.0858,51.384c-44.0642,25.7026-88.5354,50.6348-135.4419,70.9028
		c-36.2241,15.6521-73.4028,28.1707-112.611,33.9434c-56.5804,8.3301-110.9695,0.4436-163.0825-22.741
		c-35.5603-15.8201-63.2178-41.6467-87.5293-71.3967c-14.1293-17.2896-28.0557-34.7451-42.2168-52.0085
		c-5.9226-7.22-12.5669-13.7852-19.531-20.0264c-28.4087-25.4595-61.8369-34.0688-99.189-29.8181
		c-45.9865,5.2334-88.9564,19.7314-129.5696,41.6853c-11.428,6.1775-22.9701,12.1819-34.7125,17.7307
		c-14.351,6.7817-29.4092,10.8862-45.5059,8.7932c-4.2987-0.5591-6.0942,0.9507-6.6754,5.0752
		c-1.0229,7.2568-2.2606,14.4861-3.5592,21.7c-0.626,3.478-1.5947,6.8945-2.4084,10.3391c-0.7529-0.0674-1.506-0.1345-2.2589-0.2019
		c0-8.928,0.4211-17.8806-0.0981-26.7783c-0.7928-13.585-1.0614-13.5859-13.2518-18.803c-1.786-0.7642-3.4663-2.0725-6.4121-1.3774
		c-1.8655,6.2249,0.8948,12.6606,0.6522,19.0796c-0.2388,6.3193,0.3229,12.668,0.1136,18.9897
		c-0.2164,6.5361,0.5087,13.2327-2.2871,20.6663c-2.5156-2.8428-1.8889-5.4468-1.9104-7.7517
		c-0.1619-17.3979-2.6118-34.5137-5.8416-51.5732c-1.0015-5.2896-3.321-9.1069-7.6945-12.2095
		c-4.002-2.8386-8.3527-5.5476-10.3895-10.4353L1071.4935,2719.9265z"/>
	<path d="M967.4811,940.0087c-23.4231,15.1863-43.9921,33.3574-59.9189,56.5314c-10.5912,15.4102-20.1429,31.4224-28.4307,48.1576
		c-14.636,29.5542-28.8707,59.3077-43.6073,88.811c-4.0042,8.0164-8.99,15.5747-13.8915,23.1047
		c-20.202,31.0363-49.8002,47.0363-85.49,53.5795c-30.5669,5.6041-61.5235,7.1317-92.3884,9.6848
		c-10.3228,0.854-20.5135,2.4601-30.5067,5.1494c-28.5701,7.6885-52.5457,21.0636-63.0875,51.5121
		c-1.2365-5.9348-0.674-11.6289,0.0586-17.3607c5.9474-46.5404,25.421-87.3081,53.2426-124.4606
		c25.9904-34.7072,57.335-63.9059,92.4346-89.2037c3.429-2.4713,7.3066-4.4845,9.4553-8.6168
		c-37.9677,10.8752-69.5823,31.8679-96.2212,60.7087c-26.3428,28.5203-45.1934,61.5865-58.0883,97.8824
		c-3.065-0.1938-2.8806-2.1538-2.9105-3.619c-1.168-57.1554,1.0051-113.9897,17.8182-169.2247
		c8.0349-26.3965,19.7114-50.9662,38.8284-71.3717c21.0657-22.4857,47.17-34.1411,77.8505-35.8638
		c27.0839-1.5209,53.0928,3.7211,78.3857,12.8079c28.9408,10.3976,58.3383,18.7822,88.995,22.1981
		c37.1404,4.1383,73.8512,2.8405,109.7245-8.8143c2.5403-0.8253,5.0532-1.7264,7.7913-1.4792L967.4811,940.0087z"/>
	<path d="M1697.5577,521.7448c-26.8918-26.7825-59.3196-43.7787-95.7153-53.3861c-37.9097-10.0068-76.2953-11.0773-114.9373-4.7329
		c-2.2611,0.3712-4.5485,1.0999-6.8285,0.3101c-0.8654-1.0597-0.3302-1.8196,0.5228-2.3411
		c46.786-28.5933,95.2123-53.6589,148.6615-67.4835c23.3168-6.0309,47.0049-9.1307,71.2463-6.8307
		c40.3619,3.8294,71.0116,22.9292,91.9348,57.5728c13.639,22.5831,20.9603,47.4246,25.3094,73.2275
		c6.1252,36.341,16.1545,71.4442,32.7991,104.4587c13.1489,26.0809,29.5691,49.8082,50.9341,69.9287
		c1.6418,1.5463,3.8015,2.8346,3.9731,5.4938l0.0391-0.045c-2.1235,0.2076-3.8945-0.8193-5.6411-1.7465
		c-30.2271-16.0433-62.9824-21.0187-96.6057-21.5718c-30.3433-0.4991-60.562,2.3239-90.7903,4.5573
		c-25.9153,1.9146-51.7902,4.0516-77.7152-0.3927c-24.158-4.1414-44.5365-15.1335-61.938-32.1698
		c-13.1587-12.8824-24.4161-27.3243-34.9865-42.3076c-9.4091-13.337-18.4888-26.909-27.5729-40.4717
		c-8.5547-12.7723-17.7933-24.9651-29.056-35.501c-13.9065-13.0091-29.5112-22.5515-48.8657-25.3145
		c-7.8066-1.1145-15.2115,1.6655-22.8567,0.8696l0.1469,0.1829c1.8772-4.1495,6.2009-4.728,9.6754-6.3079
		c35.5615-16.1702,73.0905-21.7228,111.8491-20.1827c52.6136,2.0906,102.1772,16.3401,149.9707,37.709
		c5.3762,2.4036,10.2426,6.3537,16.5659,6.3423C1697.6719,521.618,1697.5577,521.7448,1697.5577,521.7448z"/>
	<path d="M2609.4006,752.0858c2.8396-0.4076,5.1987,0.9871,7.5684,2.1465c37.7839,18.4861,74.4509,38.8639,107.929,64.5336
		c24.7354,18.9663,47.2622,40.0974,63.9644,66.781c26.9517,43.0588,27.6741,86.4943,1.8489,130.3002
		c-11.4536,19.4282-26.4319,35.9084-42.8955,51.1323c-23.0974,21.358-43.8472,44.7228-60.9121,71.2322
		c-18.772,29.1615-32.4746,60.3909-38.5039,94.7377c-0.3962,2.2562-0.9231,4.4895-2.3193,6.7577
		c-0.5261-4.0762-1.0925-8.1477-1.572-12.2294c-3.821-32.5319-17.0918-61.3909-34.4138-88.6836
		c-16.4529-25.9232-35.2888-50.1222-53.8748-74.502c-11.5154-15.1055-22.8677-30.2893-32.5464-46.7095
		c-18.0317-30.5906-22.7725-62.7179-13.4165-97.1344c8.165-30.0355,20.5505-58.4094,32.7744-86.8734
		c6.594-15.3546,12.0063-31.0272,14.6941-47.6096c4.4937-27.7236-0.5623-52.379-22.1985-71.9851l-0.0664,0.1029
		c4.24,0.1702,7.4277,2.7473,10.7898,4.8328c34.7241,21.5375,61.1143,51.0497,81.6133,86.035
		c26.9678,46.0254,42.0205,96.0961,49.7385,148.595c0.623,4.2369,1.3059,8.4648,2.7153,12.6918
		c4.2458-17.6833,5.5251-35.5186,4.0313-53.6107c-4.8789-59.0734-30.0291-109.0096-68.6719-152.9082
		c-2.1772-2.4734-4.9287-4.5106-6.1357-7.7577L2609.4006,752.0858z"/>
	<path d="M933.4959,2485.8418c-5.7534-1.1345-10.1726-4.8374-14.8259-7.959c-36.3108-24.3574-62.8156-57.3-82.9207-95.676
		c-22.3501-42.6604-35.5315-88.2358-42.3757-135.7629c-0.5166-3.5876-0.4912-7.2942-3.3602-12.6748
		c-1.0195,7.062-1.9491,12.2993-2.5101,17.5757c-5.0695,47.6729,5.9353,91.9819,28.3102,133.8408
		c11.2072,20.9663,24.9128,40.1895,41.0643,57.6545c1.5518,1.678,2.9987,3.4529,4.3954,5.0686
		c-1.4318,2.0142-2.7203,1.0667-3.7736,0.5613c-48.2223-23.1404-94.6169-49.2034-134.7407-85.137
		c-17.985-16.1067-33.6904-34.1672-45.3451-55.458c-20.2057-36.9114-21.08-74.2742-2.263-112
		c11.3178-22.6909,27.4561-41.647,45.8371-58.8198c20.019-18.7034,38.6505-38.625,54.4037-61.114
		c23.0287-32.8761,40.114-68.308,46.5603-108.3195c0.1373-0.8528,0.8345-1.6157,1.2921-2.4602
		c0.6705,0.51,1.5175,0.8342,1.5486,1.2236c2.9521,36.9482,17.8286,69.3496,37.7709,99.8895
		c16.4188,25.144,34.9313,48.7395,53.1454,72.5591c10.9304,14.2944,21.6598,28.6943,30.9771,44.1501
		c18.5328,30.7432,23.4658,63.1887,14.1536,97.9775c-7.7014,28.7712-19.3176,56.033-30.9786,83.2954
		c-6.4352,15.0452-12.2928,30.2471-15.2546,46.4233c-2.1143,11.5476-2.8528,23.1389-1.2114,34.8062
		c1.8076,12.8494,6.6716,24.3477,15.2699,34.1772c1.7311,1.979,4.0277,3.553,4.6901,6.3289L933.4959,2485.8418z"/>
	<path d="M1563.444,2500.1326c3.116,0.1089,5.7415,1.614,8.3967,2.9958c26.549,13.8162,55.0537,19.7502,84.7124,20.8472
		c29.3582,1.0862,58.6246-0.7383,87.8701-3.0952c24.5731-1.9802,49.1179-4.2515,73.8469-3.1758
		c32.7834,1.4263,60.8779,12.9587,83.7556,36.887c11.0911,11.6006,21.2659,23.9116,30.5117,36.9766
		c10.2014,14.4153,20.0942,29.0505,30.0112,43.6646c10.1501,14.9578,21.3225,29.01,35.4434,40.4607
		c12.3853,10.0432,26.092,17.1055,42.2124,19.1335c8.0951,1.0188,15.8278-0.8049,24.7809-2.0042
		c-3.4436,3.7068-7.2078,4.9329-10.6587,6.5237c-35.8622,16.5327-73.7181,22.3887-112.9252,20.9509
		c-53.093-1.947-103.1072-16.1804-151.2566-37.8638c-5.0836-2.2893-10.1343-4.6516-15.4708-6.1301
		c61.7218,57.9597,136.007,69.7981,216.5275,57.8262c0.2476,2.7837-1.4224,3.4836-2.7947,4.3149
		c-44.0313,26.675-89.4998,50.2549-139.3867,64.1921c-21.2712,5.9426-42.8933,9.698-65.085,9.2273
		c-48.52-1.0298-84.8191-22.2791-107.7719-65.4058c-10.5936-19.9045-16.9263-41.2627-20.8093-63.3706
		c-3.9264-22.3535-8.9451-44.4226-16.4125-65.8799c-15.7076-45.136-39.344-85.1836-75.4552-117.1904L1563.444,2500.1326z"/>
	<path d="M2759.5601,2165.9358c4.4976,0.2808,8.469-1.6533,12.5083-3.1252c46.0881-16.7883,81.6143-46.9431,109.4287-86.7717
		c13.4194-19.2158,24.1609-39.8607,32.5586-61.7421c0.9324-2.4299,1.2322-5.2429,3.4026-7.0327
		c1.4719-0.177,1.7383,0.874,1.7615,1.8152c1.3137,53.4723-0.8884,106.6337-14.6035,158.7123
		c-6.0613,23.0151-14.7126,44.9712-28.0388,64.8506c-23.8462,35.572-56.9561,54.01-100.0632,54.1694
		c-25.3667,0.094-49.5723-5.4978-73.2039-14.1323c-26.9949-9.8635-54.5352-17.49-83.0959-21.2629
		c-38.4802-5.0835-76.4441-3.6208-113.6646,8.3132c-1.2205,0.3914-2.5146,0.5525-3.6958,0.804
		c-0.7607-1.4685,0.1785-1.9958,0.9233-2.4507c31.3228-19.1143,53.583-46.5354,71.6406-77.8723
		c17.1597-29.7783,31.4124-61.0095,46.2654-91.9431c8.0879-16.8442,16.9282-33.2305,28.0591-48.3292
		c16.4651-22.3345,38.1047-36.814,64.8604-43.9927c21.0259-5.6414,42.5234-7.9797,64.0945-10.0552
		c21.5461-2.073,43.2898-2.0029,64.6619-5.9463c13.5083-2.4924,26.5632-6.3525,38.7104-12.9233
		c16.1331-8.7271,28.3628-20.8616,33.9873-38.811c0.4717-1.5046,0.7615-3.2349,2.9028-4.571
		c-0.1816,13.3047-1.9399,26.0005-4.6777,38.5642c-9.8865,45.3726-32.249,84.3618-61.6636,119.6605
		c-24.6877,29.6265-53.3159,54.9575-84.7969,77.1475c-2.9241,2.061-6.5901,3.3787-8.1467,7.0601
		c-0.2932,0.0171-0.6062-0.0237-0.8672,0.0745c-0.2,0.0754-0.3342,0.3262-0.4978,0.4988
		C2758.7266,2166.408,2759.1433,2166.1719,2759.5601,2165.9358z"/>
	<path d="M1073.3846,403.983c-6.9866-0.3513-13.7473-2.2831-20.793-2.5291c-33.1015-1.1558-60.3231,11.8633-83.3487,34.5814
		c-13.8219,13.6371-18.5936,31.2933-19.5537,50.0562c-0.8854,17.3032-1.1847,34.6378-1.645,51.9611
		c-1.1099,41.7777-9.9873,81.9222-25.5562,120.6092c-13.1664,32.717-33.952,58.6425-66.7668,73.6299
		c-17.1062,7.813-35.1682,12.3174-53.5374,15.8367c-23.8806,4.5752-47.9357,8.1385-71.6918,13.4785
		c-65.5985,14.7452-112.482,54.1714-146.5534,110.4637c-21.0394,34.7612-31.7441,73.1882-38.1865,112.9464
		c-6.1937,38.2241-8.3318,76.8121-10.2303,115.4337c-3.0448,61.9395-0.6797,123.9985-3.9035,185.9059
		c-3.9803,76.4366-27.9376,145.6018-78.6237,204.1425c-27.6422,31.926-60.6086,56.9724-99.4428,73.9799
		c-2.728,1.1947-5.5986,2.0775-8.4443,2.9741c-0.4115,0.1296-1.0565-0.4818-1.7023-0.8048
		c1.6898-3.3239,5.2734-3.8746,8.0702-5.4525c58.0878-32.7712,100.7707-79.2759,125.2771-141.6119
		c18.7209-47.6198,19.1299-95.6575,0.4134-143.4176c-18.5728-47.3939-46.9828-87.5704-90.3376-115.3605
		c-50.9975-32.6888-106.0812-41.8148-163.3019-19.9502c-56.8523,21.7239-92.1069,63.8181-102.7354,124.1379
		c-11.8352,67.1675,35.1527,136.2814,100.1433,149.5509c14.882,3.0386,29.8779,2.996,44.6161-0.8467
		c23.679-6.1736,44.6237-17.5657,62.0728-34.795c44.0908-43.5355,16.7805-104.8264-22.6174-123.291
		c-11.9316-5.5918-24.5554-8.5044-37.7086-8.7882c-29.6132-0.6393-52.4605,19.1919-57.5694,49.1793
		c-2.308,13.5469-0.2711,24.9276,11.3197,33.847c9.0031,6.9281,12.1826,16.2462,8.8811,27.5823
		c-1.3814,4.7433-1.8244,9.7599-2.9622,16.1603c-8.3851-5.8892-17.1631-9.6082-24.1536-16.2728
		c-5.6058-5.3444-7.7267-12.2594-5.4698-19.2264c5.6759-17.5201,6.7899-35.8586,10.722-53.6151
		c5.9792-27.001,28.6452-44.382,57.1035-46.3914c52.0616-3.6761,98.4003,38.1523,99.5936,90.3528
		c0.5275,23.0719-7.7396,43.4435-23.4684,59.9722c-29.0018,30.4764-63.9645,49.0074-107.1241,47.574
		c-38.7046-1.2855-70.6916-18.1115-96.6197-46.1367c-47.0776-50.8854-56.259-122.9955-22.6447-184.7239
		c35.467-65.1306,91.2639-99.6359,165.3067-101.5344c73.6823-1.8892,131.6932,30.6329,176.7469,87.5006
		c23.2642,29.3644,39.2423,62.5624,48.2838,99.0078c0.629,2.5358,0.5477,5.3292,3.3324,8.4191
		c0.2679-4.5718,0.6894-8.2845,0.6702-11.995c-0.1432-27.6609-0.0416-55.3286-0.6501-82.9803
		c-1.0712-48.6766-0.7433-97.3251,2.9723-145.8765c4.0607-53.0602,12.3687-105.3236,34.5634-154.2972
		c24.5969-54.2739,61.739-97.8262,113.2022-128.4147c27.0221-16.0614,57.0134-23.8483,87.7148-29.2511
		c25.9113-4.5601,52.0952-7.387,77.794-13.3647c44.3756-10.322,74.2931-36.7775,91.5031-78.6969
		c16.7883-40.8922,25.3894-83.3702,26.6772-127.4437c0.438-14.9864,0.5807-29.972,2.1837-44.9197
		c2.681-25.0006,13.9286-44.7922,34.4723-59.4006c18.0109-12.8071,37.5741-21.5619,59.8367-23.0287
		c11.5513-0.7611,23.2117-0.9965,33.755,5.2739C1073.2729,404.1199,1073.3846,403.983,1073.3846,403.983z"/>
	<path d="M2403.666,2799.8171c29.5352,2.4724,55.8987-5.6216,79.7603-23.1074c19.5388-14.3181,30.1206-33.2383,32.1665-57.2825
		c1.3298-15.6333,1.5261-31.2844,1.7314-46.949c0.5789-44.137,9.2737-86.6143,25.3938-127.7227
		c17.5911-44.8584,49.1538-73.5017,96.01-85.3511c23.3125-5.8955,47.0889-9.175,70.6975-13.4102
		c29.3228-5.2605,58.1255-12.3015,84.387-26.9229c42.679-23.7629,73.5645-58.9392,96.2146-101.6616
		c18.6731-35.2212,27.8311-73.3945,33.2952-112.554c8.356-59.8806,9.709-120.2002,10.7922-180.5236
		c0.5623-31.3257,0.5957-62.6643,1.4841-93.9797c1.4827-52.2444,11.7351-102.6196,34.9666-149.749
		c31.4556-63.812,78.7056-111.8223,143.9011-141.4111c3.1975-1.4514,6.3704-3.5051,10.6611-3.071
		c-1.3931,3.7083-4.5999,4.1558-6.9971,5.4819c-55.1584,30.5115-96.6455,73.811-122.3882,131.5759
		c-24.075,54.0229-24.8567,108.4534-1.3232,162.9214c18.6538,43.1743,45.5967,80.0029,85.4299,105.8323
		c51.4631,33.3707,106.9663,42.7782,165.0522,20.6737c53.9102-20.515,88.1875-60.1744,101.0837-116.5365
		c14.4709-63.2451-22.9512-131.0295-82.7834-152.6404c-26.6226-9.6157-52.9436-8.752-78.9155,2.4573
		c-13.8486,5.9766-26.8015,13.4648-38.2795,23.3267c-45.6641,39.2346-32.9424,110.1707,23.5376,131.4861
		c12.0359,4.5422,24.4309,6.6982,37.2578,5.6548c21.842-1.7766,37.4221-12.6831,46.6477-32.5999
		c2.6853-5.7974,4.0581-11.9722,5.2834-18.1951c2.3779-12.0767-0.114-22.4097-10.2466-30.3428
		c-10.3213-8.0811-13.5837-18.4038-9.6216-31.1101c1.2546-4.0227,1.3945-8.3928,2.2146-13.7063
		c8.3086,5.1953,16.2561,9.0505,23.0017,14.8982c6.3936,5.543,9.2803,12.7505,6.7522,20.6555
		c-5.3025,16.5815-7.1626,33.7393-10.4314,50.6875c-5.8645,30.407-32.2041,49.4912-64.3081,48.8831
		c-46.147-0.8748-83.7092-33.0552-91.4502-78.5498c-4.0923-24.0505,1.8672-45.9146,16.7002-64.8733
		c35.7329-45.6726,110.8127-81.0308,184.5659-29.6194c67.082,46.7615,86.2749,136.3271,45.4473,209.2087
		c-48.4294,86.4528-151.8037,121.6188-245.511,83.4706c-46.0156-18.7329-81.3716-50.1696-108.0242-91.6544
		c-16.1438-25.1279-28.3418-52.0688-34.9719-81.3462c-0.3679-1.6238-0.7983-3.2385-1.3083-4.8228
		c-0.1809-0.5618-0.686-1.0193-1.5964-2.3059c-1.7156,12.4219-1.843,24.188-1.5859,35.9817
		c1.344,61.6575,2.2207,123.3295-1.4045,184.9291c-3.0432,51.7136-9.7722,102.8721-27.7622,151.8992
		c-21.6836,59.0918-58.3425,106.6816-110.3799,142.1089c-30.0967,20.49-64.3367,30.1179-99.7996,36.1609
		c-23.9739,4.0857-48.2244,6.4646-71.999,11.7742c-8.4697,1.8916-16.803,4.207-24.9717,7.1394
		c-29.6699,10.6497-51.5647,30.2732-65.636,58.2605c-19.7236,39.2295-29.9778,81.0632-33.1426,124.7917
		c-1.5159,20.9429-1.0027,41.9739-3.4497,62.8762c-2.8862,24.6519-14.2432,44.0115-34.5405,58.2727
		c-21.6086,15.1833-45.0713,24.2947-71.9536,22.6313c-3.2991-0.2041-6.7246,0.1748-9.5327-2.1724L2403.666,2799.8171z"/>
	<path d="M1051.4442,492.0052c3.5494,0.3223,5.9371,2.8695,8.698,4.6414c66.2087,42.4886,138.5098,60.9521,216.9561,54.7126
		c22.2999-1.7737,44.1956-6.1883,65.6818-12.4727c10.2621-3.0016,20.6887-5.1202,31.3014-6.3676
		c7.0302-0.8262,14.014-0.5742,20.8063,1.456c10.0873,3.0151,13.5681,10.3033,9.8207,20.2145
		c-1.6749,4.4294-4.4443,8.1724-7.6113,11.647c-7.9701,8.7444-17.5564,15.3046-28.0314,20.6244
		c-33.7076,17.1187-69.623,22.0179-106.855,18.6677c-54.9824-4.9474-103.3378-27.0172-148.0366-58.2104
		c-20.2676-14.1438-39.1301-30.0122-56.8619-47.215c-2.3108-2.2418-5.4204-4.0609-5.7283-7.834
		C1051.5831,491.8691,1051.4442,492.0052,1051.4442,492.0052z"/>
	<path d="M359.5245,1583.877c15.3301-8.6992,31.1979-16.4231,45.8053-26.4257c72.894-49.9154,120.4614-117.4658,141.9207-203.2469
		c2.753-11.0048,5.7765-21.8982,10.496-32.2377c2.9138-6.3834,6.263-12.5414,11.5718-17.3291
		c7.8671-7.0947,15.6951-6.4341,22.3149,1.9164c4.4572,5.6223,6.5812,12.3004,8.0424,19.1796
		c3.8054,17.9154,2.7087,35.7999-1.0516,53.5398c-8.9725,42.3304-30.4456,77.8398-60.276,108.5709
		c-30.8447,31.7762-67.7409,54.668-108.0131,72.4446c-18.9106,8.3475-38.3646,15.2328-58.1599,21.151
		c-4.1274,1.234-8.2589,2.689-12.6977,2.3462L359.5245,1583.877z"/>
	<path d="M3107.2239,1619.797c-2.1262,2.8042-5.4707,3.6831-8.3777,5.2144c-91.6748,48.2861-151.5044,122.0061-177.7129,222.5464
		c-3.1145,11.947-6.3718,23.8203-11.7922,34.9697c-2.9287,6.0244-6.2988,11.7937-11.5784,16.1082
		c-6.9597,5.6877-14.325,5.0845-20.325-1.6162c-4.343-4.8506-6.531-10.7908-8.0867-16.979
		c-5.084-20.2231-3.5132-40.4014,1.2026-60.3638c10.7769-45.6223,35.5737-82.8845,69.5947-114.3713
		c39.8909-36.9197,87.2703-60.6833,138.3462-77.7295c9.4336-3.1487,18.6997-7.1487,28.8594-7.6489L3107.2239,1619.797z"/>
	<path d="M2423.5125,2705.771c-3.7761-0.6284-6.5605-3.1428-9.6155-5.1135c-60.4844-39.0159-126.6543-58.1465-198.6602-56.2498
		c-27.7278,0.7305-54.9727,5.2878-81.6694,12.9199c-12.1755,3.4807-24.4199,6.5728-37.1011,7.6538
		c-6.7212,0.5728-13.3679,0.29-19.7532-1.8152c-9.1157-3.0056-12.3894-9.8606-9.1335-18.8792
		c2.9221-8.0938,8.7256-14.1028,15.1775-19.4661c16.2012-13.467,35.0474-21.6814,55.2432-26.8572
		c40.3889-10.3511,80.5269-8.0967,120.3503,3.2446c42.8914,12.2151,81.0476,33.6062,116.1155,60.7415
		c17.3728,13.4426,34.4255,27.3157,48.9875,43.9272L2423.5125,2705.771z"/>
	<path d="M2190.074,479.415c-16.1104,7.3716-33.0691,11.8002-50.4883,14.7021c-39.1887,6.5283-73.072-4.5871-102.6488-30.4809
		c-19.938-17.4553-36.5845-37.8183-52.4453-58.8779c-10.428-13.8456-20.6421-27.8237-33.0618-40.0503
		c-38.2078-37.6136-83.6245-59.8342-137.2153-64.8298c-1.2046-0.1122-2.5938,0.1346-3.3733-1.2155
		c0.428-1.5855,1.8396-1.9188,3.0876-2.0981c32.2141-4.6306,64.3508-5.9545,96.2776,2.2404
		c25.3777,6.5139,47.4968,19.0581,67.1877,36.1157c16.6887,14.4572,31.2166,30.9673,45.2974,47.8951
		c11.0837,13.3251,21.9856,26.8059,33.2628,39.9652c21.9551,25.6198,48.0601,45.0007,81.3511,53.5197
		C2154.6855,480.7482,2172.2004,480.7516,2190.074,479.415z"/>
	<path d="M913.7905,585.6282c-2.9796,27.9644-9.8582,54.8838-25.3424,78.8643c-14.4977,22.4525-35.3987,36.6683-60.0604,45.9072
		c-25.7637,9.652-52.6718,14.1787-79.7759,17.7831c-17.4911,2.3262-35.0037,4.2977-52.0884,9.126
		c-51.2546,14.4847-92.6583,42.9155-123.5898,86.401c-0.7693,1.0814-1.5754,2.1385-2.4095,3.1705
		c-0.1847,0.2285-0.5614,0.3019-0.9515,0.4978c-1.9915-1.3043-0.4764-2.9226-0.0325-4.0839
		c9.076-23.745,20.3176-46.3218,35.6964-66.7256c23.3893-31.0323,54.5887-50.1912,91.4841-60.9061
		c28.8659-8.3832,58.562-12.657,88.0478-17.9724c16.7365-3.017,33.3745-6.3615,49.2048-12.8372
		c36.158-14.7911,63.2297-38.9293,78.0077-75.7427C912.4658,587.9021,913.1821,586.7868,913.7905,585.6282z"/>
	<path d="M2929.4155,940.0612c1.7808,0.1985,3.0469,1.2979,4.1475,2.546c21.9995,24.9453,40.6484,51.9014,50.8474,84.0138
		c9.5552,30.0852,8.752,60.381,2.3262,90.856c-5.1648,24.4949-13.0864,48.1986-20.4795,72.0601
		c-5.2214,16.8531-10.8789,33.5884-13.3164,51.194c-5.7632,41.6263,2.1997,79.5355,29.8445,112.2516
		c0.4146,0.4905,0.6338,1.1461,1.3237,2.4331c-2.8442,0.2775-4.2527-1.6259-5.8025-2.8091
		c-14.616-11.1584-28.0447-23.5372-39.5508-37.9681c-21.6182-27.1125-28.7327-57.983-24.426-91.9712
		c3.8418-30.3188,13.4968-59.0253,24.1729-87.4308c7.175-19.0901,12.8889-38.5187,15.425-58.8037
		c5.4688-43.7415-0.6243-85.6621-19.6948-125.5626c-1.709-3.5752-4.2024-6.8412-4.6516-10.9587L2929.4155,940.0612z"/>
	<path d="M485.9977,1845.8737c30.9577,23.7861,59.0211,49.2095,68.2245,89.2637c4.9655,21.6108,2.8453,43.0562-1.5771,64.4114
		c-5.149,24.864-13.5096,48.7552-22.3306,72.5009c-10.0673,27.1003-15.5311,54.9976-15.4154,84.0344
		c0.1436,36.03,8.4982,69.9087,25.0563,101.8347c0.7623,1.4697,1.5143,2.9451,2.8585,5.5613
		c-3.2936-0.7871-4.4647-2.7129-5.8199-4.2407c-11.2944-12.7312-21.5928-26.2085-30.6699-40.6245
		c-24.3656-38.6968-32.2273-80.4612-23.9231-125.4285c5.0973-27.6018,13.8329-54.1747,22.032-80.9125
		c5.7589-18.7798,11.7104-37.4758,13.718-57.2031c3.9261-38.5815-4.8825-73.3586-29.7945-103.5801
		c-1.0519-1.2759-1.9825-2.6541-2.9205-4.0181C485.3444,1847.3395,485.6006,1846.9674,485.9977,1845.8737z"/>
	<path d="M1661.526,2900.1111c-67.5665,13.6274-128.9595,3.5745-179.2705-48.0723c-21.675-22.2507-40.7856-46.6416-60.9286-70.1753
		c-6.0723-7.0942-12.3-14.0251-19.0946-20.4419c-28.0428-26.4834-66.2788-47.2209-119.7703-40.0957
		c2.2991-2.5081,4.6685-3.0293,6.8655-3.8162c17.9509-6.4302,36.3077-11.1404,55.3527-12.8083
		c32.5942-2.855,61.0409,7.26,86.2336,27.6204c20.3772,16.4685,37.0643,36.3562,53.0289,56.9177
		c12.0481,15.5171,23.2753,31.6602,37.3853,45.5332c36.1501,35.5432,79.0917,57.0757,129.4166,63.7336
		C1654.3462,2898.9827,1657.9325,2899.5735,1661.526,2900.1111z"/>
	<path d="M2551.6091,2615.9465c2.6243-29.0137,11.0471-56.1523,27.2314-80.4895c14.584-21.9309,35.6064-35.5208,60.0251-44.4028
		c25.5452-9.2913,52.1069-13.9592,78.9417-17.0803c25.5618-2.9727,50.8357-6.9189,74.918-16.4565
		c41.3545-16.3789,75.2483-42.3418,101.0366-78.7078c0.9412-1.3269,1.9275-2.6213,3.7356-5.0752
		c0.3225,3.9053-0.9424,6.1245-1.8213,8.3628c-6.0996,15.5349-13.3569,30.499-21.9067,44.8484
		c-24.0139,40.3032-58.801,66.3613-103.813,79.1819c-29.2375,8.3281-59.2532,12.6519-89.0959,17.8882
		c-17.416,3.0557-34.6873,6.592-51.0967,13.4661c-34.6851,14.5295-60.7136,37.9937-75.592,73.0229
		c-0.7764,1.8276-1.7734,3.5615-2.6677,5.3391L2551.6091,2615.9465z"/>
	<path d="M1684.7028,368.8622c17.6549-5.4777,33.3483-8.1095,49.1381-10.165c34.0698-4.4351,67.7811-3.3257,100.6786,7.5928
		c62.9482,20.8922,107.686,80.6771,109.7715,146.5936c0.2952,9.3273,0.2583,18.6957-3.2051,27.5912
		c-4.4883,11.5271-12.6829,13.1755-21.3921,4.2585c-4.6899-4.8021-8.259-10.4774-11.084-16.524
		c-3.9417-8.437-7.5764-17.0186-11.2827-25.5643c-21.4199-49.3903-54.3477-88.1506-103.6493-111.5599
		c-29.6177-14.063-61.0037-20.6558-93.7521-21.0318C1695.6477,370.0041,1691.3052,370.807,1684.7028,368.8622z"/>
	<path d="M2801.7012,872.4006c13.8206,12.0128,25.2783,24.0454,35.979,36.7937c22.324,26.5964,39.7932,55.7997,48.4397,89.8362
		c18.3447,72.2141-18.126,137.7748-63.782,170.1803c-6.5374,4.6401-13.4197,8.7251-21.1882,11.0372
		c-5.5156,1.6415-11.3093,3.3129-16.0786-1.2319c-5.2214-4.9752-3.2246-11.1653-1.3408-16.8773
		c3.3704-10.2217,9.0422-19.2772,15.1189-28.0702c6.8232-9.8728,13.5432-19.7992,19.1626-30.4342
		c40.4575-76.5659,33.959-150.5778-12.0466-222.4523c-1.2561-1.9622-2.6304-3.8485-3.9126-5.7947
		C2801.8938,875.1462,2801.9639,874.7542,2801.7012,872.4006z"/>
	<path d="M411.8851,988.8301c-7.4523-7.5088-13.5788-14.0465-20.0919-20.1732c-16.8618-15.8617-35.4612-29.2371-56.8918-38.3223
		c-13.3229-5.6483-27.1174-9.0118-41.763-8.4719c-6.472,0.2388-7.0543-0.4739-5.7976-6.8801
		c4.3423-22.1359,11.6308-43.1478,25.6713-61.1726c21.2781-27.3163,49.972-37.4983,83.7361-35.2096
		c5.6218,0.3811,11.1808,1.6875,16.7696,2.5612c4.4261,0.6919,5.4677,3.0455,3.6961,7.0719
		c-4.0337,9.1675-7.1548,18.6576-9.5106,28.386c-9.7029,40.0704-8.0019,79.9382,2.242,119.6394
		c0.7488,2.9021,1.5822,5.7827,2.2952,8.6931C412.3805,985.5233,412.1467,986.1862,411.8851,988.8301z"/>
	<path d="M1593.3041,239.8808c-0.422-4.027,1.6163-7.6468,2.6674-11.3545c6.8497-24.1646,10.8734-48.6562,9.5979-73.873
		c-0.8868-17.5335-4.6206-34.2071-13.8317-49.4221c-3.5531-5.8692-3.3646-6.5742,2.5648-8.5844
		c20.6888-7.0142,41.9026-10.9974,63.7896-8.429c27.2748,3.2008,48.8546,16.3491,64.6901,38.8288
		c4.2273,6.0012,7.8098,12.3743,10.8083,19.0743c8.4299,18.8361,8.3844,18.602-11.3458,22.3185
		c-42.348,7.9772-78.6163,28.0968-110.7333,56.2688c-5.7246,5.0214-11.2233,10.3002-16.8534,15.4302
		C1594.5208,240.2637,1594.0619,240.0359,1593.3041,239.8808z"/>
	<path d="M567.8395,972.1497c12.973-47.4802,30.8782-90.0295,64.2913-124.5737c52.4375-54.2128,125.5966-58.7159,181.5432-35.1139
		c9.8402,4.1512,19.2733,9.2192,27.0463,16.7184c4.5315,4.3718,9.7815,9.1074,7.6202,16.2343
		c-2.1686,7.1509-9.024,8.0231-15.3534,9.0944c-12.7007,2.1497-25.2339,0.0696-37.7634-1.525
		c-36.5519-4.6521-72.4622-2.4591-107.2744,10.3326c-51.1312,18.7881-87.8205,54.0453-114.1858,100.9291
		C572.4946,966.502,572.0037,969.2711,567.8395,972.1497z"/>
	<path d="M1788.1796,2829.2014c-10.3933,4.3828-20.5679,5.7942-30.5668,7.6824c-32.6753,6.1699-65.4313,7.7349-98.291,1.2007
		c-88.731-17.6448-128.6514-92.1187-131.2029-153.4224c-0.3621-8.7,0.3044-17.3718,3.4318-25.595
		c4.4142-11.6074,12.6222-13.2048,21.283-4.1306c5.0986,5.3418,8.911,11.6577,11.998,18.3308
		c3.7748,8.1599,7.197,16.4827,10.8317,24.7085c18.2217,41.2424,44.767,75.552,83.6481,99.3274
		c36.5494,22.3499,76.5596,31.9163,119.1985,31.2966C1781.3699,2828.5583,1784.282,2827.8237,1788.1796,2829.2014z"/>
	<path d="M2860.1863,726.1995c2.5894-2.8933,6.498-2.9532,9.7991-3.9825c22.0383-6.8728,43.2449-15.5017,62.5181-28.4429
		c16.8525-11.3157,31.3557-24.7897,39.9778-43.6013c1.7886-3.9025,3.7068-5.2581,7.4387-2.2529
		c22.1707,17.854,41.2637,38.2139,48.9229,66.4629c9.1296,33.6714-1.1531,63.0435-22.3391,89.366
		c-3.6687,4.5586-4.3735,4.4615-9.0696-1.0529c-16.8459-19.7809-36.9397-35.4976-59.6924-47.8475
		c-21.4856-11.6621-44.1287-20.3168-68.1082-25.3381c-2.9165-0.6108-5.7898-1.4308-8.6719-2.1957
		C2860.7517,727.2585,2860.6323,726.8599,2860.1863,726.1995z"/>
	<path d="M669.6508,2327.6836c-2.6204,0.0818-4.2771-1.6726-5.9624-3.2495c-27.2265-25.4734-50.8971-53.6667-66.835-87.7356
		c-31.2417-66.7817-18.0508-138.7346,34.8429-190.0282c8.6587-8.397,18.1812-15.6482,28.9538-21.166
		c4.1731-2.1375,8.5234-3.8389,13.1577-4.6355c10.6899-1.8372,15.8066,3.365,14.0937,14.2319
		c-0.7357,4.6665-2.5716,8.968-4.545,13.1935c-4.2499,9.0996-9.9758,17.3127-15.6508,25.5476
		c-16.222,23.5391-28.6864,48.8513-35.4901,76.7083c-13.1398,53.7993-4.1422,104.4922,22.168,152.5635
		c4.629,8.4578,10.0596,16.4771,15.1201,24.6987C669.5037,2327.8123,669.6508,2327.6836,669.6508,2327.6836z"/>
	<path d="M3054.6929,2215.9778c4.2593,1.7395,6.0515,4.644,8.3159,6.9592c16.3733,16.7415,33.9543,31.9209,54.6372,43.2373
		c17.198,9.4094,35.1726,15.7979,55.0908,15.7134c6.7156-0.0286,7.6533,1.1206,6.2844,7.7385
		c-4.3591,21.0752-11.4548,41.0979-24.5425,58.4856c-17.0569,22.6602-39.9275,34.6714-68.2329,36.1865
		c-10.3279,0.553-20.6492,0.4092-30.8037-2.0173c-7.7856-1.8601-8.0693-2.032-5.1541-9.1736
		c11.6506-28.541,16.0508-58.2595,15.1602-88.9451c-0.5732-19.7458-3.6536-39.0833-8.4766-58.1904
		C3056.1968,2222.9031,3055.5601,2219.7996,3054.6929,2215.9778z"/>
	<path d="M609.8221,2476.5315c-2.3201,2.6687-5.7842,2.8118-8.8178,3.7859c-22.2909,7.1602-43.7853,15.9851-63.1369,29.4604
		c-16.0927,11.2056-29.8315,24.4578-38.3727,42.501c-2.5548,5.3972-3.2101,5.5422-7.9772,1.7825
		c-16.898-13.3276-31.7354-28.5669-41.533-47.9778c-16.5756-32.8403-12.4151-64.4604,6.5327-94.8979
		c3.3115-5.3198,6.0535-12.9375,11.9657-14.0452c6.1653-1.1548,8.6719,7.1006,12.7112,11.1982
		c32.8148,33.2891,72.7571,53.2966,117.7891,64.0237c3.2303,0.7695,6.4589,1.5557,9.6516,2.4626
		C609.0939,2474.9558,609.3458,2475.8159,609.8221,2476.5315z"/>
	<path d="M2897.562,2232.1206c-0.9463,10.4165-4.9312,20.0125-8.3757,29.6968c-12.6277,35.5032-30.0269,68.1455-57.1067,95.054
		c-52.9858,52.6504-127.1067,55.8782-182.3108,30.8462c-5.4324-2.4636-10.5615-5.656-15.645-8.8101
		c-4.2454-2.6345-8.0918-5.8552-11.3062-9.7456c-8.7236-10.5576-5.9565-18.4241,7.5762-21.3604
		c13.6519-2.9619,27.209-0.6995,40.719,1.1104c36.8987,4.9431,73.1475,2.7571,108.2852-10.1694
		c49.6887-18.2791,85.8433-52.3167,112.2617-97.4985c1.8162-3.1062,2.6987-6.8811,6.0237-8.99L2897.562,2232.1206z"/>
	<path d="M1880.1469,2958.5745c-2.697,10.9104-5.5659,21.1438-7.7253,31.5247c-5.3328,25.636-7.3083,51.356-1.1445,77.2195
		c2.645,11.0989,7.7356,21.1001,13.4326,30.8894c-1.1355,0.9663-1.7639,1.8582-2.6055,2.165
		c-24.4785,8.9233-49.6011,13.4961-75.4338,7.9966c-37.7137-8.0288-59.1061-33.6504-71.1139-68.5859
		c-1.9225-5.5933-1.1637-6.7756,4.2803-7.5186c54.0958-7.384,98.2125-33.6218,136.1071-71.7185
		C1876.8322,2959.6536,1877.6083,2958.4277,1880.1469,2958.5745z"/>
	<path d="M1489.5437,363.9051c0.2637-3.796,2.4991-6.832,3.963-10.1552c28.0195-63.6203,34.6702-128.5679,12.348-195.3813
		c-2.7454-8.2172-4.8066-16.6221-4.4055-25.428c0.965-21.1851,16.3003-33.37,37.1813-29.4479
		c11.6438,2.1871,20.8746,8.4709,28.3118,17.4276c10.8243,13.036,15.5858,28.4329,16.7687,45.0765
		c1.5117,21.2719-2.5999,41.7148-9.3595,61.7485c-9.1079,26.9934-22.63,51.7623-38.0614,75.5675
		c-12.3241,19.0117-25.9325,37.0782-40.3411,54.5479c-1.8724,2.2704-3.4049,4.991-6.52,5.9262L1489.5437,363.9051z"/>
	<path d="M467.4402,1137.8812c-7.0295-8.8268-13.7664-17.9064-21.1373-26.4382c-40.0338-46.3395-89.3293-77.1963-149.9108-88.9542
		c-8.5759-1.6644-16.7694-4.3037-24.1315-9.1066c-17.3349-11.3088-20.2669-30.7838-6.5154-46.2555
		c12.5115-14.0765,28.9653-18.2789,47.1014-16.6101c15.5615,1.4319,29.6181,7.3381,42.6719,15.7797
		c24.8235,16.0526,43.447,38.0879,59.666,62.323c21.2204,31.7086,37.0579,66.1486,50.6675,101.6744
		c0.9507,2.4816,2.0303,4.9547,1.4518,7.7306L467.4402,1137.8812z"/>
	<path d="M2701.3618,705.8547c6.8418-1.1835,13.7163-2.203,20.52-3.5758c64.3271-12.9799,118.5247-42.9869,159.5938-95.051
		c5.3977-6.8428,11.543-12.9268,19.2668-17.1888c18.1064-9.9915,36.6187-3.3583,43.9465,16.0027
		c5.8193,15.3755,3.3167,30.1897-4.2581,44.3099c-8.2861,15.4464-20.9617,26.5842-35.9414,35.2092
		c-22.8855,13.1766-47.9385,19.5524-73.8257,23.452C2796.9307,714.0945,2734.1355,713.3607,2701.3618,705.8547z"/>
	<path d="M3001.498,2066.5078c2.7556,3.7014,5.4697,7.4341,8.2727,11.0991c40.9551,53.5474,93.1323,89.7163,159.9363,103.2051
		c9.2056,1.8591,18.0989,4.5203,25.9197,9.9475c15.9558,11.0728,18.802,29.1445,6.5176,44.1865
		c-11.4651,14.0386-27.0869,18.6121-44.5854,17.8984c-16.4185-0.6694-31.188-6.4937-44.8643-15.2397
		c-25.488-16.3-44.5347-38.8662-60.98-63.782c-21.3875-32.4033-37.3872-67.499-50.8757-103.7991
		c-0.3276-0.8818-0.4004-1.8584-0.592-2.7908C3000.6638,2066.9912,3001.0811,2066.7495,3001.498,2066.5078z"/>
	<path d="M1983.4471,2833.9912c-1.3564,3.3911-2.6213,6.8223-4.083,10.1675c-27.895,63.8352-34.1934,128.9568-11.6746,195.7886
		c3.0107,8.9353,4.8208,18.0134,4.0557,27.4922c-1.5188,18.8184-15.6826,30.1255-34.4146,27.2783
		c-16.7871-2.5515-28.4307-12.5059-36.6431-26.7051c-9.6843-16.7441-12.1563-35.1055-10.5986-54.0918
		c2.2124-26.9729,10.9763-52.0635,22.7168-76.1997c17.7527-36.4961,41.1465-69.2644,66.9314-100.4194
		c1.0364-1.2522,2.4866-2.1619,3.7439-3.2314L1983.4471,2833.9912z"/>
	<path d="M769.5067,2494.884c-5.9377,3.2253-12.359,3.1614-18.4982,4.407c-64.9782,13.1853-119.5508,43.6296-160.7902,96.3938
		c-5.578,7.137-12.05,13.3596-20.2286,17.5056c-16.5499,8.3894-32.9486,2.9141-41.0232-13.7825
		c-5.4944-11.3608-5.5012-23.2422-2.0038-35.0564c6.4423-21.7615,21.8196-36.1626,40.6439-47.2617
		c23.3331-13.7581,49.0736-20.2444,75.6556-23.8772C685.4288,2487.45,727.5104,2489.3542,769.5067,2494.884z"/>
	<path d="M495.1302,1197.8121c-6.3677-13.3604-9.4907-27.9891-12.8019-42.5321c-12.1097-53.1858-18.9922-106.9681-16.7967-161.6219
		c1.5337-38.1764,7.3394-75.6079,21.9829-111.2291c5.5992-13.6205,12.3911-26.5927,21.9593-37.9182
		c4.7533-5.6265,9.904-10.8658,16.693-14.0748c10.39-4.9113,18.5245-1.0609,21.0655,10.2466
		c1.8544,8.2527,1.0774,16.5886-0.523,24.8256c-2.5547,13.1483-6.8428,25.7607-12.1904,38.0074
		c-22.0395,50.473-36.1436,103.1022-42.1138,157.8116c-4.8278,44.241-4.7444,88.4866,2.3688,132.5612
		C494.9826,1195.1818,495.0154,1196.5035,495.1302,1197.8121z"/>
	<path d="M2631.7217,701.8148c13.3699,1.0178,26.1929,4.7859,39.0984,8.011c55.8428,13.9546,109.6892,33.1661,159.7524,61.9871
		c35.491,20.4318,67.9363,44.6545,93.3015,77.3291c8.8345,11.3805,16.2717,23.5707,20.4385,37.5323
		c1.646,5.5161,2.3884,11.1086,1.4177,16.7813c-1.2427,7.2588-5.8623,10.9952-13.2297,10.8878
		c-6.929-0.101-12.905-3.0576-18.5632-6.6888c-14.1917-9.108-25.7559-21.0767-36.325-34.0333
		c-28.5791-35.0359-60.8516-66.2126-97.1443-93.1814c-42.814-31.8149-89.0969-57.1707-139.6172-74.5931
		c-3.106-1.0709-6.4758-1.7111-8.9854-4.1373L2631.7217,701.8148z"/>
	<path d="M1453.4369,413.8925c0.4944-2.8738,2.78-4.4765,4.6393-6.3128c47.207-46.6245,98.5826-87.7039,157.9231-118.0805
		c33.1256-16.9572,67.6426-29.9686,104.7758-34.8144c16.236-2.1188,32.5648-2.6062,48.7356,0.9977
		c6.5529,1.4604,12.8849,3.5683,18.1704,7.9007c7.4797,6.1308,8.0742,13.6454,1.6146,20.8032
		c-5.0438,5.589-11.6555,8.8263-18.5165,11.5172c-14.3801,5.6399-29.4402,8.4558-44.7075,10.1424
		c-94.3855,10.4265-180.4458,42.6548-257.7242,98.053c-4.8162,3.4526-8.8243,8.1823-14.8219,9.8813
		C1453.5242,413.9788,1453.4369,413.8925,1453.4369,413.8925z"/>
	<path d="M2973.1858,2006.3116c2.9448,2.2375,3.1575,5.7844,3.9822,8.9053c16.9341,64.0785,27.1746,129.0336,24.0911,195.5382
		c-1.9099,41.1921-8.7417,81.4331-26.5742,119.1375c-5.5835,11.8052-12.408,22.8127-21.4656,32.3159
		c-4.4045,4.6211-9.2561,8.6936-15.3792,10.8298c-8.1824,2.8552-14.6418-0.1348-17.5281-8.2688
		c-2.03-5.7224-2.228-11.6926-1.6465-17.7515c1.7429-18.1658,8.0435-34.9751,15.1904-51.5186
		c11.6465-26.959,21.1411-54.6423,28.2375-83.135c16.1895-65.0002,20.5837-130.7188,11.8735-197.2264
		c-0.3884-2.9648-0.4456-5.9734-0.657-8.9614L2973.1858,2006.3116z"/>
	<path d="M2019.3871,2783.8982c-0.7515,2.7268-2.9077,4.4119-4.7722,6.2703c-46.2375,46.0845-96.6819,86.6489-154.708,117.1326
		c-32.0046,16.8135-65.4296,29.8298-101.3142,35.6304c-16.1416,2.6089-32.3668,4.0876-48.6962,1.2078
		c-7.2618-1.2805-14.3912-2.917-20.7947-6.6829c-11.4077-6.7092-12.3981-16.3025-2.6191-25.0637
		c5.5509-4.9731,12.2565-7.9482,19.1766-10.4573c14.5027-5.259,29.6171-7.6892,44.8442-9.5093
		c96.6897-11.5581,184.3057-45.8298,262.1516-104.6062c2.0964-1.5833,3.9734-3.6248,6.8691-3.7849
		C2019.5248,2784.0342,2019.3871,2783.8982,2019.3871,2783.8982z"/>
	<path d="M836.0629,2498.1526c-53.2158-9.2397-104.5021-24.3511-153.5377-46.6511c-34.7172-15.7883-67.5519-34.7134-96.9097-59.2612
		c-17.9754-15.0308-34.213-31.6912-46.8843-51.5632c-5.7693-9.0481-10.6055-18.5854-12.7112-29.1575
		c-1.4372-7.2158-2.481-14.9766,4.1235-20.4526c6.749-5.5957,13.9915-2.5388,20.7274,0.4539
		c8.9268,3.9666,16.3429,10.2319,23.5123,16.7476c7.91,7.1887,14.8849,15.2502,21.7254,23.4375
		c63.6051,76.1316,141.5903,131.6772,235.4709,164.4702C833.1166,2496.7131,834.5704,2497.4883,836.0629,2498.1526z"/>
	<path d="M1392.4272,395.0909c0.7106-13.1062,0.451-25.9937-0.7373-38.9345c-5.9824-65.142-35.6333-116.1125-90.4858-152.1277
		c-6.3962-4.1996-13.0157-8.0654-18.8318-13.0988c-3.7983-3.2873-7.3567-6.8019-9.613-11.3524
		c-3.532-7.1234-1.6617-13.0582,5.3302-16.8109c3.5417-1.9008,7.3997-2.9135,11.4315-3.3114
		c9.6876-0.9562,19.2463-0.3242,28.7629,1.7493c51.995,11.3288,90.4661,53.4935,97.5056,106.2481
		c4.882,36.5858-1.9117,71.5393-13.4968,105.9301C1399.7834,380.8313,1397.7211,388.5248,1392.4272,395.0909z"/>
	<path d="M447.5706,1237.8229c-4.0883,0.2329-6.607-2.8446-9.6462-4.7091c-35.1459-21.5616-73.0698-33.5525-114.535-32.9086
		c-31.5474,0.4899-61.0938,8.8928-88.8841,23.6827c-7.3457,3.9092-14.6149,7.9921-22.7037,10.2445
		c-3.5264,0.9818-7.0562,1.9813-10.7851,1.8132c-8.0587-0.3632-12.2656-4.5967-12.2542-12.6147
		c0.0097-6.8687,2.5597-13.0197,5.9449-18.8312c13.2302-22.7135,32.6739-38.418,56.4676-48.7588
		c33.7094-14.6501,67.4675-12.9376,100.851,1.2997c27.4042,11.6874,50.3217,29.7749,70.7447,51.1344
		c8.9114,9.3199,18.3999,18.2416,24.6205,29.8167L447.5706,1237.8229z"/>
	<path d="M2618.8438,644.0907c3.6436-4.7216,6.9939-5.6068,9.7896-7.311c50.3311-30.682,84.8945-73.1063,97.7698-131.5703
		c3.2292-14.6631,4.6367-29.5765,4.5935-44.6142c-0.0181-6.3243-0.0007-12.6547,0.2546-18.9721
		c0.23-5.696,1.3936-11.272,4.022-16.3707c4.0771-7.9091,10.7354-9.7912,18.2917-5.2016c4.9177,2.9869,8.6497,7.2483,11.8564,11.981
		c11.123,16.4153,16.6448,34.794,18.1389,54.3322c3.3457,43.7463-12.6572,79.5701-45.9585,107.5782
		C2703.7307,622.4298,2663.1243,635.3591,2618.8438,644.0907z"/>
	<path d="M2080.2437,2803.1187c-1.1628,18.1611-0.0356,36.0603,2.8494,53.8591c9.6235,59.3711,40.0085,105.0891,90.6082,137.46
		c7.2991,4.6699,14.8311,9.0325,20.8567,15.3992c4.6292,4.8914,9.6426,10.0171,7.2214,17.4846
		c-2.4124,7.4409-9.5378,8.957-16.0879,10.0522c-11.6682,1.9507-23.249,0.5513-34.6594-2.3816
		c-51.9197-13.3455-88.2983-56.282-93.8999-109.7568c-3.6262-34.615,2.7788-67.6663,13.5105-100.2168
		C2073.1125,2817.5269,2075.2217,2809.8384,2080.2437,2803.1187z"/>
	<path d="M851.436,2558.7861c-2.5422,3.9272-5.9872,4.6987-8.7493,6.4058c-49.214,30.4087-83.1137,72.2114-96.1912,129.4231
		c-3.9515,17.2866-5.2657,34.8699-4.8066,52.6008c0.2156,8.3298,0.1777,16.6729-2.3959,24.7502
		c-4.2761,13.4207-13.5371,16.0637-24.1121,6.7749c-6.8928-6.0549-11.5173-13.7844-15.2607-22.0161
		c-19.8367-43.6201-17.0969-105.7637,36.0569-149.6506c12.3962-10.2346,26.0054-18.54,40.5027-25.4529
		C798.7542,2570.9998,831.223,2560.9841,851.436,2558.7861z"/>
	<path d="M3021.4773,1965.9005c3.6382,0.0706,6.031,2.6777,8.8052,4.3953c31.8013,19.6855,66.2219,31.2708,103.6794,32.8628
		c33.6868,1.4321,65.4773-6.2866,95.5403-21.377c5.3601-2.6907,10.6465-5.531,16.0378-8.1567
		c5.1108-2.489,10.4492-4.4478,16.085-5.3191c13.3481-2.064,19.8496,5.0012,16.5549,18.0215
		c-2.5952,10.2561-8.3025,18.8486-14.9978,26.8242c-34.6589,41.2889-90.1206,55.1649-141.5486,35.4652
		c-21.7559-8.3339-40.8425-21.0101-58.3025-36.2111c-14.1055-12.2808-26.886-25.877-38.6099-40.4539
		C3023.2791,1970.1586,3021.5117,1968.5045,3021.4773,1965.9005z"/>
	<path d="M1961.5472,456.0001c2.6133,2.5468,5.3247,5.0013,7.8242,7.6552c18.8616,20.0258,39.8669,37.3885,63.8796,50.9057
		c58.422,32.887,117.7289,34.7597,177.8207,4.6517c8.9399-4.4793,17.7778-9.1584,27.3789-12.1415
		c4.7839-1.4864,9.603-2.9133,14.6394-2.9818c10.3081-0.14,14.6528,5.7987,11.4058,15.6027
		c-2.5747,7.7743-7.5066,14.1008-13.1436,19.8433c-22.2837,22.6996-49.5977,35.5994-80.7334,40.6282
		c-37.7874,6.1029-72.8105-2.5024-105.8181-20.8279c-23.2343-12.8995-43.3151-29.8329-61.5883-48.9882
		c-13.3679-14.0129-25.5142-29.0423-36.6873-44.8522c-2.0767-2.9384-4.8828-5.5887-4.8369-9.6262
		C1961.6859,455.8691,1961.5472,456.0001,1961.5472,456.0001z"/>
	<path d="M784.8945,772.2446c12.201-3.1481,24.4078-6.2728,36.2637-10.5504c33.0138-11.911,62.9963-28.7297,87.7731-54.0247
		c27.5719-28.1487,43.382-62.0028,48.3792-100.8972c1.7803-13.8567,2.4152-27.8589,3.6631-41.7866
		c0.5076-5.6646,1.8081-11.1884,3.8505-16.5007c2.0601-5.3579,4.2888-11.2105,10.7476-11.9998
		c6.934-0.8472,10.5897,4.6403,13.9237,9.6965c3.8899,5.8995,6.3334,12.4758,8.1027,19.274
		c7.083,27.2148,5.6626,54.2163-2.9456,80.7938c-11.197,34.5715-32.7643,61.4319-62.5159,81.9131
		c-30.4695,20.9753-64.651,32.7137-100.6018,39.7883c-11.755,2.3132-23.6697,3.8361-35.5355,5.5535
		c-3.5668,0.5161-7.215,0.4684-10.8259,0.6788C785.0803,773.5371,784.9874,772.8909,784.8945,772.2446z"/>
	<path d="M2879.5493,1152.1268c-1.7185,8.4702-3.53,16.9229-5.1392,25.4138c-6.584,34.7417-7.5527,69.4595,0.8489,104.0737
		c12.3306,50.8011,42.4705,88.0621,87.1362,114.1892c7.7629,4.541,15.6179,8.9153,22.8015,14.3683
		c4.2554,3.2302,8.3579,6.6376,11.6626,10.868c8.0613,10.3199,5.053,18.1613-7.97,20.4318
		c-6.2769,1.0944-12.6162,0.7357-18.885-0.4395c-33.0781-6.2002-60.1262-22.8982-82.0129-48.0233
		c-24.582-28.2189-36.3074-61.7756-38.4041-98.7075c-2.7385-48.245,9.1567-93.7482,27.4246-137.896
		c0.6172-1.4915,1.7639-2.7635,2.6641-4.1377L2879.5493,1152.1268z"/>
	<path d="M591.0728,2050.0251c4.4083-19.7567,8.2016-39.6583,9.4238-59.9528c3.1805-52.8154-8.0257-101.333-43.2175-142.5029
		c-14.6689-17.1611-32.3632-30.6409-51.9367-41.7405c-9.8624-5.5925-19.6525-11.2932-27.9993-19.1033
		c-3.1766-2.9724-6.1703-6.1191-7.9406-10.1736c-2.6194-5.9993-1.1263-10.3176,4.8361-13.1438
		c5.8796-2.7869,12.1979-3.094,18.5888-2.4949c21.7895,2.0427,41.327,10.2566,59.1799,22.446
		c40.5731,27.7017,61.7748,66.9407,67.493,115.1394c4.236,35.7051-1.2891,70.4185-11.0211,104.6519
		C603.9279,2019.1603,598.5076,2034.8771,591.0728,2050.0251z"/>
	<path d="M1511.3434,2743.9863c-15.381-16.6782-31.7772-32.2273-50.3792-45.3262c-25.3451-17.8467-52.7643-31.0396-83.475-36.5315
		c-40.8628-7.3079-79.4423,0.032-116.1113,18.8098c-8.5967,4.4023-17.1716,8.8335-26.364,11.8992
		c-4.741,1.5813-9.5194,3.0447-14.5742,3.2026c-11.4689,0.3591-15.8264-5.7371-11.7335-16.603
		c2.7483-7.2969,7.4628-13.3325,12.8542-18.8442c19.4244-19.8584,43.0933-32.1667,69.9137-38.457
		c36.4777-8.5549,71.4098-3.2314,104.9312,12.8069c36.5037,17.4656,65.4951,44.1257,90.9871,74.9521
		c6.5706,7.9456,12.6663,16.2881,18.8629,24.5364c2.175,2.8953,4.6766,5.7085,4.9493,9.6199L1511.3434,2743.9863z"/>
	<path d="M2681.2649,2428.6909c-18.1829,5.0854-36.2983,10.4597-53.7058,17.9775c-27.8127,12.0117-52.9138,28.0427-73.7339,50.2693
		c-31.2725,33.3845-45.5098,73.6731-47.7231,118.7629c-0.408,8.3096-0.4976,16.6501-2.3052,24.8262
		c-0.7175,3.2461-1.3064,6.5503-2.3782,9.6831c-2.1553,6.3005-4.0859,13.6365-12.0967,14.1833
		c-7.7964,0.5317-11.5234-6.0645-14.5442-11.9597c-9.5308-18.6011-12.1672-38.696-10.6633-59.217
		c3.7549-51.228,27.988-90.8079,69.9468-119.7546c33.5874-23.1716,71.5703-34.884,111.3665-41.4985
		C2657.2012,2430.0066,2668.9822,2427.8228,2681.2649,2428.6909z"/>
	<path d="M2612.2639,684.5383c57.4482,1.8071,107.5339-13.5237,152.4805-45.4874c28.8723-20.5327,52.1729-46.4346,71.6804-75.8633
		c6.6367-10.012,13.5056-19.8391,22.1143-28.3004c3.8064-3.7415,7.7083-7.394,12.7183-9.537
		c7.7607-3.3195,12.8293-0.884,15.1465,7.3041c1.2979,4.5862,1.0481,9.22,0.3389,13.8755
		c-2.5574,16.789-9.3806,31.9268-18.3477,46.1077c-25.781,40.7705-62.4514,67.7157-107.5391,83.6791
		c-45.6963,16.1786-92.6694,17.1002-140.1565,11.2114c-1.3086-0.1622-2.5964-0.5824-3.8601-0.9882
		C2615.9238,686.246,2615.0645,685.7767,2612.2639,684.5383z"/>
	<path d="M1427.5928,421.9924c-0.267-2.9372,1.6484-4.9743,3.0284-7.2069c43.6575-70.6288,48.6702-145.0567,21.7627-222.5585
		c-2.9457-8.4847-6.5597-16.7424-9.9995-25.0492c-4.0837-9.8615-7.8215-19.8185-10.0925-30.2877
		c-1.0709-4.9365-1.5532-9.905-0.9991-14.8922c1.0291-9.2613,6.8049-12.7075,15.5334-9.2791
		c5.026,1.9742,9.2023,5.3277,13.1013,9.0126c7.8186,7.3896,14.0992,15.986,19.4628,25.2493
		c14.6237,25.2564,22.3881,52.6188,24.3365,81.6284c3.3269,49.5295-10.0352,94.9363-34.597,137.4657
		c-10.1903,17.6445-22.0424,34.1386-35.2201,49.6743c-1.9152,2.2581-3.5234,4.8956-6.4578,6.0981
		C1427.4512,421.8477,1427.5928,421.9924,1427.5928,421.9924z"/>
	<path d="M487.5803,1221.7617c-2.0726-1.3607-2.8313-3.6536-3.9158-5.6771c-37.3273-69.6506-95.858-110.7366-172.1559-127.9862
		c-16.9333-3.8282-34.2493-4.9988-51.3266-7.802c-7.9059-1.2977-15.6599-3.1763-23.1151-6.1605
		c-3.4141-1.3665-6.708-2.973-9.4896-5.436c-5.8586-5.1876-5.9386-10.7947-0.1183-16.1882
		c4.5182-4.187,10.1608-6.3531,15.9386-7.9949c20.2894-5.7651,40.8434-5.4668,61.3852-1.8235
		c55.9044,9.915,99.4976,39.7278,134.0042,83.8301c20.5025,26.2039,35.3963,55.5222,46.8568,86.6561
		c1.0349,2.8115,2.1837,5.6052,1.79,8.7128L487.5803,1221.7617z"/>
	<path d="M2045.309,2775.8926c-0.2661,2.7844-1.9644,4.9041-3.3501,7.1611c-40.6775,66.2568-47.5649,136.5391-25.082,210.3291
		c4.085,13.4063,9.437,26.322,14.9304,39.1936c4.8459,11.3547,9.1726,22.8938,10.4229,35.3181
		c0.6443,6.4004,1.4194,13.4153-5.1489,17.0112c-6.4397,3.5261-12.2822-0.5266-17.4053-4.3184
		c-10.061-7.447-17.6509-17.1689-23.9834-27.8345c-21.6785-36.51-29.4028-76.2302-25.4543-118.1262
		c5.6914-60.3838,33.365-110.8989,72.0625-156.1873c0.8391-0.9822,2.084-1.6179,3.1411-2.4158
		C2045.4435,2776.0237,2045.309,2775.8926,2045.309,2775.8926z"/>
	<path d="M851.3489,2515.6919c-11.8795,1.0913-23.8441,1.6123-35.6249,3.3677c-69.1393,10.3018-123.3939,45.4817-165.71,100.1868
		c-6.5099,8.4158-12.3011,17.3894-18.3729,26.1411c-6.8508,9.8745-14.0591,19.4524-23.4742,27.0715
		c-4.7078,3.8096-9.9576,7.8696-16.2675,4.9382c-6.8777-3.1951-6.6575-10.2275-6.4114-16.5793
		c0.445-11.4902,4.0457-22.239,8.7805-32.5828c15.7252-34.354,40.616-60.637,72.2195-80.7371
		c33.593-21.365,70.7386-32.2178,110.1625-35.3845C801.5583,2510.1125,826.476,2510.7273,851.3489,2515.6919z"/>
	<path d="M2981.3633,1984.0968c2.1936,1.2273,2.9639,3.5217,4.0664,5.5352c37.7729,68.9679,96.4163,109.4205,172.395,126.1647
		c13.0237,2.8701,26.2517,4.4614,39.479,6.0632c11.2622,1.364,22.4392,3.3054,32.9377,7.8142
		c6.0999,2.6199,13.2813,5.176,13.3787,13.1431c0.104,8.498-7.3733,11.249-13.8027,13.9194
		c-13.1638,5.4668-27.1506,6.7734-41.1838,6.3374c-46.3643-1.4409-86.9714-18.2244-122.4175-47.6348
		c-40.3694-33.4951-66.1162-76.9313-83.8472-125.6163c-0.6614-1.8164-0.5808-3.9031-0.8459-5.8638L2981.3633,1984.0968z"/>
	<path d="M1544.6876,318.2519c21.2244-26.5217,44.8726-50.3413,70.6526-72.0267c20.4471-17.1998,42.0046-32.8099,65.7719-45.157
		c20.5443-10.6727,41.8932-18.9126,65.3356-20.2799c10.0873-0.5884,19.9987,0.3607,29.2885,4.6642
		c18.8269,8.7217,20.4781,27.2419,3.4683,39.1454c-10.718,7.5005-23.1237,10.4241-35.8201,11.2344
		c-72.017,4.5959-134.6332,32.3607-190.6851,76.5846c-2.3496,1.8537-4.702,3.704-7.0725,5.5308
		C1545.3813,318.1369,1545.0038,318.1546,1544.6876,318.2519z"/>
	<path d="M454.1636,1067.9337c-6.4033-17.2119-11.2351-33.4202-15.632-49.7539c-11.2916-41.946-19.1093-84.3801-17.5262-128.0985
		c0.7031-19.4175,3.5416-38.4366,10.6193-56.6368c4.1381-10.6409,9.5381-20.6105,18.1335-28.3529
		c7.6948-6.9312,16.4072-12.2897,27.1302-7.6986c10.7285,4.593,12.876,14.3887,12.9576,24.9132
		c0.0872,11.248-3.0448,21.8-7.8951,31.7113c-25.1752,51.443-34.677,105.9226-32.0973,162.8013
		c0.6642,14.6429,2.3653,29.1814,4.8312,43.631C455.0137,1062.3768,455.8716,1064.2969,454.1636,1067.9337z"/>
	<path d="M2765.5635,726.0371c57.7151,8.7144,112.1165,20.8813,162.8787,45.9307c18.9109,9.3317,36.5452,20.5856,51.7844,35.3147
		c8.1978,7.9232,15.3064,16.6924,20.2263,27.0579c3.4697,7.3099,5.814,14.9315,4.8792,23.1567
		c-1.4434,12.6976-11.5125,20.1189-24.0481,17.7406c-7.3586-1.3961-13.7161-4.9761-19.6196-9.4585
		c-6.4167-4.8719-11.8936-10.674-16.7178-17.083c-43.1179-57.2841-100.0986-94.7375-167.5527-117.2328
		c-2.8357-0.9456-5.6594-1.9305-8.4624-2.9685C2768.3445,728.2777,2767.8743,727.7451,2765.5635,726.0371z"/>
	<path d="M704.5494,2475.6514c-57.6332-8.446-113.0139-20.8225-164.5438-46.7207c-20.0593-10.0815-38.6083-22.4124-53.9742-39.0474
		c-7.2925-7.895-13.4449-16.5632-17.1357-26.7534c-2.4067-6.645-3.9249-13.4409-2.153-20.5562
		c2.491-10.0024,9.2176-15.1848,19.5137-15.0967c7.3005,0.0625,13.6049,2.9888,19.5412,6.8313
		c7.9177,5.1245,14.5466,11.7046,20.1965,19.1909c43.6625,57.8538,101.3915,95.4058,169.664,117.7935
		c2.211,0.7251,4.4143,1.4822,6.5818,2.3254C702.7948,2473.8342,703.1989,2474.4373,704.5494,2475.6514z"/>
	<path d="M1929.5651,2880.0659c-35.6619,41.7026-74.9016,79.4177-121.8193,108.4412
		c-22.5283,13.9363-46.3582,24.8206-72.9102,28.6084c-9.9762,1.4236-19.9231,1.3677-29.724-1.2688
		c-5.8492-1.5732-11.2993-4.0105-15.7461-8.2744c-7.7319-7.4148-8.6281-17.5869-2.218-26.1555
		c4.0977-5.478,9.6837-9.0151,15.8524-11.7795c10.1997-4.5706,21.0631-6.127,32.0374-6.9951
		c69.3435-5.4878,129.697-32.8411,183.8687-75.3425c3.3557-2.6326,6.1357-6.2029,10.6682-7.0916L1929.5651,2880.0659z"/>
	<path d="M3012.824,2136.9866c2.4565,1.6951,2.5583,4.5571,3.3682,7.0071c13.6138,41.1804,24.1626,83.0647,28.1819,126.3694
		c2.377,25.6052,2.4126,51.1812-2.9495,76.51c-3.196,15.0977-8.1858,29.4802-17.2263,42.2036
		c-4.0979,5.7673-8.9407,10.7646-15.1853,14.1941c-15.0823,8.2832-29.3079,1.238-31.6602-15.7427
		c-0.9658-6.9722-0.5598-13.9504,1.1062-20.8191c1.574-6.489,3.7625-12.7717,6.7058-18.762
		c24.4607-49.7776,34.1072-102.5662,32.3572-157.7361c-0.5286-16.6667-2.4358-33.1589-5.0508-49.5959
		C3012.2781,2139.4009,3011.592,2138.125,3012.824,2136.9866z"/>
	<path d="M381.4646,1639.9813c-2.0965,6.2434-4.0725,12.5408-8.0362,17.949c0.0005,0.001,0.1748,0.137,0.1755,0.1382
		c0.5219-6.9446,2.3215-13.3198,8.0131-17.959L381.4646,1639.9813z"/>
	<path d="M389.6157,1627.9816c2.2524-5.6819,6.1058-9.7432,11.9415-11.8008c-0.0002-0.0032-0.1353-0.1509-0.1353-0.1509
		c-3.9796,3.9404-7.9592,7.8806-11.9388,11.821L389.6157,1627.9816z"/>
	<path d="M1047.7314,2681.6296c-2.9475-3.4114-3.5709-7.4861-3.9994-13.9465c2.4028,5.9346,3.5243,9.8955,3.863,14.072
		C1047.5908,2681.7598,1047.7314,2681.6296,1047.7314,2681.6296z"/>
	<path d="M2403.7871,2799.6858c-5.7793,0.488-11.1287-0.7854-16.0264-3.9102l-0.1362,0.1406
		c5.5161,0.5981,10.8948,1.7603,16.0371,3.905C2403.666,2799.8171,2403.7871,2799.6858,2403.7871,2799.6858z"/>
	<path d="M1059.3864,2706.0723c4.1174,2.1423,6.8857,5.3745,8.0179,9.9277l0.1327-0.1348
		c-4.2051-2.0732-6.6901-5.5281-7.9822-9.9404L1059.3864,2706.0723z"/>
	<path d="M2427.1858,528.2726c2.8125,2.5888,2.0942,5.9053,1.9111,10.1801c-2.012-3.8768-1.2175-7.2166-1.7739-10.3051
		C2427.3284,528.1423,2427.1858,528.2726,2427.1858,528.2726z"/>
	<path d="M1059.5548,2705.9248c-3.5447-2.3779-5.3323-5.8291-6.0613-9.928c0.0013-0.0022-0.1409,0.1204-0.1409,0.1204
		c3.3988,2.4766,5.5857,5.6877,6.0339,9.9539C1059.3864,2706.0723,1059.5548,2705.9248,1059.5548,2705.9248z"/>
	<path d="M2421.3872,510.0414c3.2673,2.4665,4.02,5.9968,4.1431,9.7935l0.136-0.111c-3.032-2.579-4.1531-5.9572-4.1086-9.8229
		L2421.3872,510.0414z"/>
	<path d="M2413.2036,496.197c-2.9741-1.8845-4.7627-4.7136-6.2219-7.8052c0.3315-0.3025,0.6633-0.6065,0.9958-0.9122
		c2.8086,2.0894,5.0222,4.6119,5.897,8.1091C2413.8713,495.5916,2413.2036,496.197,2413.2036,496.197z"/>
	<path d="M437.3581,1601.1348c-1.1476,0-2.2953,0.0052-3.4424-0.0165c-0.054-0.001-0.1034-0.2417-0.1549-0.3707
		c1.199,0,2.398,0,3.597,0C437.3578,1600.8766,437.358,1601.0057,437.3581,1601.1348z"/>
	<path d="M2427.7378,560.2661c0-2.5765,0-5.153,0-9.2628c2.1406,4.209,0.7063,6.6449-0.1182,9.1321
		C2427.6243,560.1401,2427.7378,560.2661,2427.7378,560.2661z"/>
	<path d="M1079.5804,405.9006c3.1926,0.247,6.1437,0.9126,7.5065,4.3309l0.1461-0.1312c-2.7318-1.0645-5.6527-1.8004-7.5377-4.3367
		L1079.5804,405.9006z"/>
	<path d="M1042.9152,2657.4319c-0.0974,0.2817-0.1941,0.5635-0.2908,0.845c-0.1091-0.5974-0.2595-1.1917-0.3087-1.7939
		c-0.0222-0.2712,0.158-0.5588,0.2463-0.8391C1042.6799,2656.2397,1042.798,2656.8359,1042.9152,2657.4319z"/>
	<path d="M2425.5303,519.8349c2.313,2.4615,2.0168,5.4387,1.6604,8.4323c-0.0049,0.0055,0.1377-0.1248,0.1323-0.1195
		c-1.8223-2.554-1.9819-5.439-1.6589-8.4211C2425.6663,519.7239,2425.5303,519.8349,2425.5303,519.8349z"/>
	<path d="M383.5098,1635.8893c0.481-2.53,1.6797-4.5747,3.9757-5.8784c0.0012-0.0002-0.1285-0.1279-0.1285-0.1279
		c-0.2914,2.667-1.364,4.8027-3.9968,5.8784C383.3612,1635.7631,383.5098,1635.8893,383.5098,1635.8893z"/>
	<path d="M2417.4333,501.9828c-2.7214-0.9711-3.6196-3.2736-4.2283-5.7872c-0.0015,0.0013,0.6663-0.6041,0.6694-0.6069
		c2.2507,1.5096,3.624,3.5256,3.6445,6.3209C2417.5183,501.9101,2417.4333,501.9828,2417.4333,501.9828z"/>
	<path d="M3079.6187,1575.9792c0.3486-2.6035,1.6868-4.5605,3.8896-5.9524l-0.1304-0.131c-0.259,2.6626-1.5994,4.6188-3.8899,5.9542
		L3079.6187,1575.9792z"/>
	<path d="M1091.5925,411.9322c2.4191,0.6027,4.3627,1.8978,5.7762,3.9651l0.135-0.139c-2.4326-0.584-4.556-1.6176-5.7756-3.9683
		C1091.7247,411.7919,1091.5925,411.9322,1091.5925,411.9322z"/>
	<path d="M2973.3101,2006.1766c-0.2754-0.8113-0.5508-1.6226-0.8262-2.4338c1.4961,0.501,0.3687,1.7334,0.707,2.5623
		C2973.1858,2006.3116,2973.3101,2006.1766,2973.3101,2006.1766z"/>
	<path d="M1049.595,2687.7534c-1.9061-1.6458-2.0112-3.8425-1.8672-6.1191c0.0037-0.0046-0.137,0.1255-0.1327,0.1208
		c1.5137,1.7678,1.8508,3.8953,1.8594,6.1221L1049.595,2687.7534z"/>
	<path d="M1079.6953,405.7637c-2.3254,0.1945-4.5344-0.0222-6.3077-1.7836c-0.0029,0.0029-0.1146,0.1398-0.1177,0.1426
		c2.3452-0.2744,4.6198-0.2897,6.3081,1.7801C1079.5804,405.9006,1079.6953,405.7637,1079.6953,405.7637z"/>
	<path d="M2897.6833,2232.2539c0.0488-0.2825,0.0977-0.5647,0.1462-0.8472c-0.0923,0.2344-0.1846,0.469-0.2722,0.7087
		C2897.562,2232.1206,2897.6833,2232.2539,2897.6833,2232.2539z"/>
	<path d="M1905.4579,697.962c1.6799-0.068,2.853,0.96,4.074,1.8845l-0.0366-0.0658c-1.5044-0.2529-3.175-0.1492-3.9983-1.8636
		C1905.4969,697.917,1905.4579,697.962,1905.4579,697.962z"/>
	<path d="M2421.5576,509.901c-1.8621-0.7332-2.0874-2.2933-2.0212-4.0007l-0.1169,0.0975c2.0337,0.6761,2.0776,2.3217,1.9683,4.0426
		C2421.3872,510.0414,2421.5576,509.901,2421.5576,509.901z"/>
	<path d="M1409.4689,503.8683c-0.403,0.3797-0.806,0.7595-1.209,1.1392c-0.4867-1.6451,0.8232-0.7506,1.3549-0.957
		C1409.6157,504.0513,1409.4689,503.8683,1409.4689,503.8683z"/>
	<path d="M2419.5364,505.9003c-1.8884-0.67-2.1941-2.188-2.1018-3.9188c-0.0012,0.0013,0.0837-0.0715,0.0845-0.0719
		c1.8201,0.8099,2.1196,2.3277,1.9014,4.0872C2419.4194,505.9978,2419.5364,505.9003,2419.5364,505.9003z"/>
	<path d="M2879.676,1152.2677c0.1494-0.4225,0.2991-0.8448,0.4487-1.2672c1.1655,0.6476,0.2539-0.7767-0.2009,0.4766
		c-0.083,0.2291-0.2537,0.4265-0.3789,0.6442C2879.5493,1152.1268,2879.676,1152.2677,2879.676,1152.2677z"/>
	<path d="M3107.354,1619.9269c-0.0408-0.042-0.0815-0.084-0.1262-0.1279C3107.2239,1619.797,3107.354,1619.9269,3107.354,1619.9269z
		"/>
	<path d="M3087.5115,1563.8879c0.1216-1.5795,0.5334-2.9987,2.0886-3.7881c-0.0007-0.0017-0.1501-0.131-0.1501-0.131
		c-0.072,1.6064-0.3567,3.0958-2.0854,3.7915C3087.3655,1563.7623,3087.5115,1563.8879,3087.5115,1563.8879z"/>
	<path d="M2981.5229,1983.9591c-0.3984-0.3921-0.7971-0.7839-1.1956-1.176c1.6604-0.6035,0.7327,0.8413,1.0369,1.3123
		C2981.3633,1984.0968,2981.5229,1983.9591,2981.5229,1983.9591z"/>
	<path d="M3091.356,1555.7621c0.0637,1.7186-0.1438,3.3143-1.907,4.2051c0.001,0.0017,0.1504,0.131,0.1511,0.1327
		c0.009-1.6864,0.3513-3.2227,1.9116-4.2068C3091.5105,1555.8912,3091.356,1555.7621,3091.356,1555.7621z"/>
	<path d="M487.4338,1221.8922c0.3083,0.4333,0.6168,0.8667,0.9252,1.3c-0.2104-0.1498-0.5117-0.2559-0.6095-0.4597
		c-0.1364-0.2842-0.1208-0.6414-0.1697-0.969C487.5803,1221.7617,487.4338,1221.8922,487.4338,1221.8922z"/>
	<path d="M1049.4545,2687.8772c1.4741,0.9243,1.8475,2.4087,2.0292,3.9902l0.137-0.1189c-1.6122-0.8545-1.8931-2.3855-2.0266-3.9929
		C1049.595,2687.7534,1049.4545,2687.8772,1049.4545,2687.8772z"/>
	<path d="M1051.4836,2691.8674c1.5444,1.0095,1.8824,2.5508,1.8702,4.2478c-0.0012,0.002,0.141-0.1206,0.1396-0.1184
		c-1.5642-0.9995-1.8831-2.5498-1.8743-4.2461C1051.6206,2691.7485,1051.4836,2691.8674,1051.4836,2691.8674z"/>
	<path d="M1109.3748,429.944c-0.5648-1.3378-1.1295-2.6757-1.6962-4.0145c-0.0021-0.0009-0.1458,0.1384-0.1458,0.1384
		c0.5714,1.3149,1.1427,2.6298,1.7141,3.9446L1109.3748,429.944z"/>
	<path d="M3055.9209,1596.1713c1.1934-0.6687,2.387-1.3375,3.5803-2.0063c0-0.0001-0.1348-0.1451-0.1348-0.1451
		c-1.2004,0.6958-2.4011,1.3916-3.6016,2.0874L3055.9209,1596.1713z"/>
	<path d="M409.3681,1610.0028c-1.3056,0.5769-2.6111,1.1538-3.9171,1.7329c-0.0004,0.0023,0.1456,0.1523,0.1457,0.1523
		c1.3026-0.578,2.6052-1.1563,3.9083-1.7371C409.5056,1610.1484,409.3681,1610.0028,409.3681,1610.0028z"/>
	<path d="M1087.0869,410.2316c1.6942,0.0549,3.3431,0.2293,4.5023,1.7028c0.0033-0.0021,0.1355-0.1425,0.1389-0.1443
		c-1.4917-0.5682-2.9869-1.1346-4.4885-1.6953C1087.233,410.1004,1087.0869,410.2316,1087.0869,410.2316z"/>
	<path d="M411.5999,1607.8557c-0.0459-0.0492-0.0918-0.0983-0.1377-0.1475L411.5999,1607.8557z"/>
	<path d="M2371.4985,2788.1326c1.2073,0.6667,2.4148,1.3335,3.6284,1.9971c0.0063-0.0032,0.1545-0.1318,0.1545-0.1318
		c-1.2183-0.6665-2.4365-1.3333-3.6548-2L2371.4985,2788.1326z"/>
	<path d="M2379.3672,2791.9248c-1.3579-0.6453-2.7161-1.2903-4.0798-1.9312c-0.0059,0.0042-0.1541,0.1328-0.1604,0.136
		c1.3589,0.6514,2.7241,1.2993,4.0933,1.9453C2379.2241,2792.073,2379.3672,2791.9248,2379.3672,2791.9248z"/>
	<path d="M2383.3284,2793.9758c-1.3176-0.6853-2.6355-1.3706-3.9573-2.0532c-0.0039,0.0022-0.147,0.1504-0.1509,0.1523
		c1.3164,0.6846,2.6367,1.3674,3.9624,2.0469C2383.1875,2794.1189,2383.3284,2793.9758,2383.3284,2793.9758z"/>
	<path d="M2387.7607,2795.7756c-1.4744-0.6023-2.9487-1.2043-4.4277-1.8032c-0.0046,0.0034-0.1455,0.1465-0.1504,0.1494
		c1.6548,0.1565,3.2026,0.5869,4.438,1.7971C2387.6245,2795.9163,2387.7607,2795.7756,2387.7607,2795.7756z"/>
	<path d="M3085.6431,1568.0146c-0.0063-1.66,0.2607-3.196,1.8696-4.1249c-0.0012-0.0018-0.1472-0.1274-0.1482-0.1294
		c0.0466,1.6718-0.5081,3.0743-1.8572,4.1199C3085.5054,1567.8798,3085.6431,1568.0146,3085.6431,1568.0146z"/>
	<path d="M3061.6292,1591.8763c1.3025-0.5653,2.6052-1.1305,3.908-1.6987c0-0.0031-0.137-0.152-0.137-0.152
		c-1.3018,0.5684-2.6033,1.1367-3.906,1.7072C3061.4932,1591.735,3061.6292,1591.8763,3061.6292,1591.8763z"/>
	<path d="M381.617,1640.1095c-0.0798-1.7253,0.2501-3.2666,1.894-4.2183c-0.0012-0.002-0.1498-0.1282-0.1508-0.1299
		c0.1012,1.7344-0.4194,3.1909-1.8968,4.2183C381.4646,1639.9813,381.617,1640.1095,381.617,1640.1095z"/>
	<path d="M2631.8655,701.7094c-0.2678-0.0554-0.5359-0.1108-0.8037-0.1661c0.2156,0.0947,0.4312,0.1896,0.6533,0.278
		C2631.7217,701.8148,2631.8655,701.7094,2631.8655,701.7094z"/>
	<path d="M3055.7649,1596.1072l-0.7529,0.1954c0,0,0.8926-0.1378,0.9006-0.1345
		C3055.9209,1596.1713,3055.7649,1596.1072,3055.7649,1596.1072z"/>
	<path d="M3019.5195,1963.8182l-0.156,0.156L3019.5195,1963.8182z"/>
	<path d="M3019.3635,1963.9742c1.0447,0.2881,1.8687,0.8154,2.1223,1.96c-1.1406-0.2534-1.6733-1.0718-1.9653-2.1152
		C3019.5195,1963.8182,3019.3635,1963.9742,3019.3635,1963.9742z"/>
	<path d="M1049.6145,489.6884l-0.1508,0.1552L1049.6145,489.6884z"/>
	<path d="M1049.4637,489.8436c0.6602,0.7203,1.3202,1.4406,1.9805,2.1613c0,0.0004,0.1389-0.1357,0.1396-0.1358
		c-1.2281-0.2064-1.8307-0.9809-1.9707-2.1774C1049.6145,489.6884,1049.4637,489.8436,1049.4637,489.8436z"/>
	<polygon points="1909.5319,699.8466 1909.7679,700.0662 1909.4955,699.7797 	"/>
	<path d="M2535.5269,713.98c0,0-0.0669,0.1022-0.0667,0.1025S2535.5269,713.98,2535.5269,713.98z"/>
	<path d="M2609.541,751.9608c0,0-0.1353,0.1241-0.1377,0.1245C2609.4006,752.0858,2609.541,751.9608,2609.541,751.9608z"/>
	<path d="M967.5248,940.1217c0,0-0.0492-0.1155-0.0464-0.1143C967.4811,940.0087,967.5248,940.1217,967.5248,940.1217z"/>
	<polygon points="2929.5811,939.9114 2929.1904,939.5575 2929.416,940.0603 	"/>
	<path d="M467.3038,1138.0243c0,0,0.14-0.1472,0.1382-0.1451S467.3038,1138.0243,467.3038,1138.0243z"/>
	<polygon points="447.3911,1237.9917 447.8793,1238.4137 447.57,1237.8234 	"/>
	<path d="M3083.5083,1570.0269c0.342-1.0609,0.9624-1.8271,2.1328-2.0126c0.002,0.0004-0.1357-0.1345-0.1338-0.134
		c-0.708,0.672-1.4177,1.3435-2.1284,2.0154C3083.3779,1569.8959,3083.5083,1570.0269,3083.5083,1570.0269z"/>
	<path d="M3079.488,1575.8501c-0.6707,0.6465-1.3413,1.293-2.0129,1.9406c-0.0007,0.0011,0.1306,0.1339,0.1306,0.1339
		c0.6702-0.6483,1.3403-1.2965,2.0117-1.9451C3079.6187,1575.9792,3079.488,1575.8501,3079.488,1575.8501z"/>
	<path d="M3075.5769,1579.8876c0.676-0.6536,1.3518-1.307,2.0281-1.9617c0.0007-0.0013-0.1306-0.1342-0.1299-0.1353
		c-0.677,0.6501-1.3545,1.3016-2.0325,1.955C3075.4424,1579.7476,3075.5769,1579.8875,3075.5769,1579.8876z"/>
	<path d="M669.5037,2327.8123c0,0,0.1376-0.1218,0.1424-0.1252C669.6508,2327.6836,669.5037,2327.8123,669.5037,2327.8123z"/>
	<path d="M3073.573,1581.8813c0.6677-0.6633,1.3357-1.3267,2.0037-1.9919c0.0002-0.002-0.1343-0.1418-0.1343-0.1439
		c-0.6677,0.662-1.3359,1.3259-2.0042,1.9922C3073.4382,1581.7399,3073.573,1581.8813,3073.573,1581.8813z"/>
	<path d="M3071.5745,1583.882c0.6663-0.6654,1.3325-1.3308,1.9985-1.9985c0-0.0021-0.1348-0.1436-0.1345-0.1458
		c-0.666,0.6648-1.332,1.3318-1.9983,2.001C3071.4399,1583.7407,3071.5745,1583.882,3071.5745,1583.882z"/>
	<path d="M359.4774,1583.786c0,0,0.0514,0.0931,0.0493,0.092C359.5245,1583.877,359.4774,1583.786,359.4774,1583.786z"/>
	<path d="M3069.5999,1585.8943c0.6582-0.6694,1.3162-1.3389,1.9744-2.0104c0.0002-0.002-0.1343-0.1432-0.134-0.1453
		c-0.6584,0.6704-1.3174,1.3429-1.9761,2.0154L3069.5999,1585.8943z"/>
	<path d="M1103.4508,422.1415c0.6165,0.6001,1.233,1.2003,1.8495,1.8004l0.1392-0.1343c-0.6189-0.6023-1.2377-1.2047-1.8566-1.8069
		L1103.4508,422.1415z"/>
	<path d="M1563.4863,2500.0173c0,0-0.0432,0.1121-0.0428,0.1138C1563.444,2500.1326,1563.4863,2500.0173,1563.4863,2500.0173z"/>
	<path d="M3067.3521,1587.9586c-0.6506,0.6871-1.3013,1.3743-1.9521,2.0642c0.0002,0.0028,0.1372,0.1517,0.1372,0.1548
		c0.6509-0.6895,1.302-1.3818,1.9541-2.0757C3067.4919,1588.1003,3067.3521,1587.9585,3067.3521,1587.9586z"/>
	<path d="M1489.429,363.7867c0,0,0.1189,0.1191,0.1168,0.1188S1489.429,363.7867,1489.429,363.7867z"/>
	<path d="M3059.5012,1594.1648c0.7087-0.7614,1.4175-1.5228,2.1272-2.2863c0.0007-0.0022-0.1353-0.1436-0.1343-0.1458
		c-0.7083,0.7593-1.4172,1.5206-2.127,2.2844C3059.3665,1594.0198,3059.5012,1594.1648,3059.5012,1594.1648z"/>
	<path d="M2551.5042,2615.8438c0,0,0.1069,0.1038,0.106,0.1033S2551.5042,2615.8438,2551.5042,2615.8438z"/>
	<path d="M1451.5905,415.9832c0.0123-1.2313,0.6619-1.8981,1.8481-2.0893c-0.0017-0.0014,0.0856,0.0848,0.0869,0.0864
		c-0.1919,1.1794-0.9138,1.7658-2.0773,1.8595C1451.4476,415.8403,1451.5905,415.9832,1451.5905,415.9832z"/>
	<path d="M1097.3688,415.8973c0.6417,0.6864,1.2836,1.3729,1.9272,2.0599c0.002,0.0006,0.1436-0.1354,0.1436-0.1354
		c-0.6449-0.6867-1.2897-1.3734-1.9352-2.0618C1097.5038,415.7583,1097.3688,415.8973,1097.3688,415.8973z"/>
	<path d="M1449.6973,417.9844c0.1608-1.1112,0.8245-1.7467,1.8927-2.0007c0.0005-0.0005-0.1423-0.1434-0.1417-0.1439
		c-0.6294,0.6718-1.2594,1.3441-1.8894,2.0164L1449.6973,417.9844z"/>
	<path d="M1101.4269,419.8273c-0.6611-0.6682-1.3224-1.3364-1.9854-2.0051c-0.002-0.0004-0.1436,0.1356-0.1455,0.1349
		c0.6606,0.6672,1.3234,1.335,1.988,2.0034C1101.2863,419.9611,1101.4269,419.8273,1101.4269,419.8273z"/>
	<path d="M1449.5588,417.8562c-0.6687,0.693-1.3374,1.386-2.0061,2.0789l0.0355-0.0056c0.7015-0.6483,1.4031-1.2966,2.1067-1.945
		C1449.6973,417.9844,1449.5588,417.8562,1449.5588,417.8562z"/>
	<path d="M1103.5829,422.0007c-0.7173-0.7242-1.4346-1.4484-2.1539-2.173c-0.0021-0.0004-0.1427,0.1334-0.1449,0.1329
		c0.7206,0.7252,1.4432,1.4509,2.1663,2.1788C1103.4508,422.1415,1103.5829,422.0007,1103.5829,422.0007z"/>
	<path d="M411.4622,1607.7083c-0.6978,0.7632-1.3954,1.5265-2.0936,2.2921c-0.0004,0.0024,0.1371,0.1481,0.1364,0.1506
		c0.6976-0.7618,1.3957-1.5261,2.0944-2.2928C411.5999,1607.8557,411.4622,1607.7083,411.4622,1607.7083z"/>
	<polygon points="1447.5527,419.9351 1447.3279,420.224 1447.5902,419.9294 	"/>
	<path d="M2423.4536,2705.8772c0,0,0.0593-0.1045,0.0591-0.1055C2423.5125,2705.771,2423.4536,2705.8772,2423.4536,2705.8772z"/>
	<path d="M1067.4043,2716c1.2421,0.062,1.9209,0.7214,2.0663,1.947c0.0005-0.0005,0.0267-0.0264,0.0267-0.0264
		c-1.1793-0.1829-1.7904-0.908-1.9606-2.0547C1067.537,2715.8652,1067.4043,2716,1067.4043,2716z"/>
	<path d="M1071.4779,2719.9421c-1.1943-0.1501-1.8597-0.8188-1.981-2.021c0.0004-0.0005-0.0259,0.0254-0.0264,0.0259
		c1.2454,0.0762,1.9144,0.7415,2.0227,1.9797C1071.4935,2719.9265,1071.4779,2719.9421,1071.4779,2719.9421z"/>
	<path d="M403.66,1613.9508c0.6453-0.6863,1.2907-1.3723,1.9364-2.0607c0.0003-0.0021-0.1457-0.1521-0.1453-0.1543
		c-0.6419,0.6932-1.2841,1.3888-1.9263,2.0844L403.66,1613.9508z"/>
	<path d="M1511.2046,2744.0513c0,0,0.1443-0.0774,0.1415-0.071C1511.3434,2743.9863,1511.2046,2744.0513,1511.2046,2744.0513z"/>
	<polygon points="933.3547,2485.9924 933.761,2486.1721 933.4965,2485.842 	"/>
	<polygon points="2357.4534,2773.8923 2357.2253,2773.6621 2357.4272,2773.9033 	"/>
	<path d="M2047.5397,2774.0425c-0.7424,0.6165-1.4846,1.2332-2.2288,1.8499c-0.002,0.0002,0.1326,0.1313,0.1309,0.1313
		c0.6995-0.6169,1.4006-1.2341,2.1018-1.8513L2047.5397,2774.0425z"/>
	<polygon points="2357.4272,2773.9033 2357.7295,2774.1641 2357.4531,2773.8892 	"/>
	<path d="M403.5248,1613.8202c-0.7013,0.7346-1.4026,1.4692-2.1033,2.2068c0.0004,0.0029,0.1356,0.1506,0.1357,0.1538
		c0.7-0.7407,1.3998-1.4846,2.1012-2.2292C403.66,1613.9508,403.5248,1613.8202,403.5248,1613.8202z"/>
	<path d="M2023.6127,2779.8779l-0.1428-0.1484L2023.6127,2779.8779z"/>
	<path d="M2023.4698,2779.7295c-0.6704,0.6963-1.3411,1.3923-2.0117,2.0884l0.1409,0.1416c0.6707-0.6924,1.3416-1.385,2.0129-2.0793
		C2023.6127,2779.8779,2023.4698,2779.7295,2023.4698,2779.7295z"/>
	<path d="M2021.4581,2781.8179c-0.6902,0.6929-1.3801,1.3857-2.0706,2.0796c-0.0005,0.0007,0.1372,0.1367,0.1367,0.1375
		c0.281-1.1003,1.0291-1.7349,2.0737-2.0747C2021.599,2781.9595,2021.4581,2781.8179,2021.4581,2781.8179z"/>
	<path d="M1425.6191,423.9325c0.2308-1.0803,0.8314-1.7845,1.973-1.9396c0.0006-0.0005-0.141-0.1452-0.1403-0.1456
		c-0.2775,1.0298-0.8602,1.7534-1.9642,1.9526L1425.6191,423.9325z"/>
	<path d="M2369.4521,2785.7563c0,0-0.134,0.1296-0.1328,0.1313C2369.3208,2785.8894,2369.4521,2785.7563,2369.4521,2785.7563z"/>
	<path d="M2371.6267,2787.9978c-0.7239-0.7463-1.4478-1.4924-2.1731-2.24c-0.0015-0.0015-0.1328,0.1316-0.1343,0.1299
		c0.7249,0.7458,1.4509,1.4937,2.1782,2.2429C2371.4985,2788.1326,2371.6267,2787.9978,2371.6267,2787.9978z"/>
	<path d="M1105.3003,423.9419c0.7428,0.7082,1.4857,1.4163,2.2306,2.1252c0.002,0.0007,0.1456-0.1385,0.1477-0.1376
		c-0.7439-0.7062-1.4897-1.4133-2.2373-2.1212C1105.4395,423.8076,1105.3003,423.9419,1105.3003,423.9419z"/>
	<path d="M1425.4877,423.7999c-0.6741,0.6526-1.3481,1.3052-2.0223,1.9578c0,0-0.0637,0.0787-0.0637,0.0787
		c0.7385-0.634,1.4771-1.2681,2.2164-1.903C1425.6191,423.9325,1425.4877,423.7999,1425.4877,423.7999z"/>
	<path d="M389.483,1627.851c-0.7079,0.6772-1.4158,1.3542-2.1248,2.0317c-0.0012,0.0002,0.1285,0.1279,0.1273,0.1282
		c0.7084-0.6763,1.418-1.3525,2.1289-2.0291C389.6157,1627.9816,389.483,1627.851,389.483,1627.851z"/>
	<polygon points="1423.4653,425.7577 1423.1821,426.0977 1423.4047,425.8372 	"/>
	<path d="M1109.2469,430.0125c0,0,0.1317-0.0783,0.1298-0.0734S1109.2469,430.0125,1109.2469,430.0125z"/>
	<polygon points="1983.4811,2834.0703 1983.6827,2833.7483 1983.4447,2833.99 	"/>
	<path d="M3069.4641,1585.754c-0.7036,0.7336-1.407,1.4674-2.1113,2.2029c-0.0007,0.0016,0.1392,0.1434,0.1384,0.145
		c0.7017-0.7338,1.4045-1.4691,2.1079-2.2061C3069.5999,1585.8943,3069.4641,1585.754,3069.4641,1585.754z"/>
	<path d="M1929.5741,2880.208c0,0-0.02-0.1475-0.0146-0.1448C1929.5651,2880.0659,1929.5741,2880.208,1929.5741,2880.208z"/>
	<path d="M1959.4581,453.7901l-0.1509,0.1481L1959.4581,453.7901z"/>
	<path d="M1959.3073,453.9382c0.7451,0.6875,1.4905,1.375,2.2378,2.0621c0.0022-0.0003,0.1409-0.1313,0.1433-0.1315
		c-0.741-0.6924-1.4841-1.3846-2.2285-2.0778C1959.4581,453.7901,1959.3073,453.9382,1959.3073,453.9382z"/>
	<path d="M2047.5436,2774.1724c0,0-0.0134-0.1343-0.0085-0.1321C2047.5397,2774.0425,2047.5436,2774.1724,2047.5436,2774.1724z"/>
</g>
</svg>
